<svg width="360" height="400" viewBox="0 0 360 400" fill="none" xmlns="http://www.w3.org/2000/svg">
<rect width="360" height="400" rx="40" fill="#102BBB" fill-opacity="0.78"/>
<path d="M80.1272 117L95.2472 83.4H101.391L116.559 117H110.031L97.0232 86.712H99.5192L86.5592 117H80.1272ZM87.0872 109.224L88.7672 104.328H106.911L108.591 109.224H87.0872ZM134.8 91.08C136.848 91.08 138.672 91.48 140.272 92.28C141.904 93.08 143.184 94.312 144.112 95.976C145.04 97.608 145.504 99.72 145.504 102.312V117H139.504V103.08C139.504 100.808 138.96 99.112 137.872 97.992C136.816 96.872 135.328 96.312 133.408 96.312C132 96.312 130.752 96.6 129.664 97.176C128.576 97.752 127.728 98.616 127.12 99.768C126.544 100.888 126.256 102.312 126.256 104.04V117H120.256V91.368H125.968V98.28L124.96 96.168C125.856 94.536 127.152 93.288 128.848 92.424C130.576 91.528 132.56 91.08 134.8 91.08ZM164.011 117.336C161.547 117.336 159.323 116.792 157.339 115.704C155.387 114.584 153.851 113.048 152.731 111.096C151.611 109.144 151.051 106.84 151.051 104.184C151.051 101.528 151.611 99.224 152.731 97.272C153.851 95.32 155.387 93.8 157.339 92.712C159.323 91.624 161.547 91.08 164.011 91.08C166.155 91.08 168.075 91.56 169.771 92.52C171.467 93.448 172.811 94.872 173.803 96.792C174.795 98.712 175.291 101.176 175.291 104.184C175.291 107.16 174.811 109.624 173.851 111.576C172.891 113.496 171.563 114.936 169.867 115.896C168.171 116.856 166.219 117.336 164.011 117.336ZM164.731 112.2C166.171 112.2 167.451 111.88 168.571 111.24C169.723 110.6 170.635 109.672 171.307 108.456C172.011 107.24 172.363 105.816 172.363 104.184C172.363 102.52 172.011 101.096 171.307 99.912C170.635 98.696 169.723 97.768 168.571 97.128C167.451 96.488 166.171 96.168 164.731 96.168C163.291 96.168 161.995 96.488 160.843 97.128C159.723 97.768 158.811 98.696 158.107 99.912C157.435 101.096 157.099 102.52 157.099 104.184C157.099 105.816 157.435 107.24 158.107 108.456C158.811 109.672 159.723 110.6 160.843 111.24C161.995 111.88 163.291 112.2 164.731 112.2ZM172.507 117V110.952L172.747 104.136L172.267 97.32V81.384H178.219V117H172.507ZM186.116 117V91.368H191.828V98.424L191.156 96.36C191.924 94.632 193.124 93.32 194.756 92.424C196.42 91.528 198.484 91.08 200.948 91.08V96.792C200.692 96.728 200.452 96.696 200.228 96.696C200.004 96.664 199.78 96.648 199.556 96.648C197.284 96.648 195.476 97.32 194.132 98.664C192.788 99.976 192.116 101.944 192.116 104.568V117H186.116ZM217.323 117.336C214.699 117.336 212.363 116.776 210.315 115.656C208.267 114.504 206.651 112.936 205.467 110.952C204.283 108.968 203.691 106.712 203.691 104.184C203.691 101.624 204.283 99.368 205.467 97.416C206.651 95.432 208.267 93.88 210.315 92.76C212.363 91.64 214.699 91.08 217.323 91.08C219.979 91.08 222.331 91.64 224.379 92.76C226.459 93.88 228.075 95.416 229.227 97.368C230.411 99.32 231.003 101.592 231.003 104.184C231.003 106.712 230.411 108.968 229.227 110.952C228.075 112.936 226.459 114.504 224.379 115.656C222.331 116.776 219.979 117.336 217.323 117.336ZM217.323 112.2C218.795 112.2 220.107 111.88 221.259 111.24C222.411 110.6 223.307 109.672 223.947 108.456C224.619 107.24 224.955 105.816 224.955 104.184C224.955 102.52 224.619 101.096 223.947 99.912C223.307 98.696 222.411 97.768 221.259 97.128C220.107 96.488 218.811 96.168 217.371 96.168C215.899 96.168 214.587 96.488 213.435 97.128C212.315 97.768 211.419 98.696 210.747 99.912C210.075 101.096 209.739 102.52 209.739 104.184C209.739 105.816 210.075 107.24 210.747 108.456C211.419 109.672 212.315 110.6 213.435 111.24C214.587 111.88 215.883 112.2 217.323 112.2ZM236.741 117V91.368H242.741V117H236.741ZM239.765 87.144C238.645 87.144 237.717 86.792 236.981 86.088C236.277 85.384 235.925 84.536 235.925 83.544C235.925 82.52 236.277 81.672 236.981 81C237.717 80.296 238.645 79.944 239.765 79.944C240.885 79.944 241.797 80.28 242.501 80.952C243.237 81.592 243.605 82.408 243.605 83.4C243.605 84.456 243.253 85.352 242.549 86.088C241.845 86.792 240.917 87.144 239.765 87.144ZM261.464 117.336C259 117.336 256.776 116.792 254.792 115.704C252.84 114.584 251.304 113.048 250.184 111.096C249.064 109.144 248.504 106.84 248.504 104.184C248.504 101.528 249.064 99.224 250.184 97.272C251.304 95.32 252.84 93.8 254.792 92.712C256.776 91.624 259 91.08 261.464 91.08C263.608 91.08 265.528 91.56 267.224 92.52C268.92 93.448 270.264 94.872 271.256 96.792C272.248 98.712 272.744 101.176 272.744 104.184C272.744 107.16 272.264 109.624 271.304 111.576C270.344 113.496 269.016 114.936 267.32 115.896C265.624 116.856 263.672 117.336 261.464 117.336ZM262.184 112.2C263.624 112.2 264.904 111.88 266.024 111.24C267.176 110.6 268.088 109.672 268.76 108.456C269.464 107.24 269.816 105.816 269.816 104.184C269.816 102.52 269.464 101.096 268.76 99.912C268.088 98.696 267.176 97.768 266.024 97.128C264.904 96.488 263.624 96.168 262.184 96.168C260.744 96.168 259.448 96.488 258.296 97.128C257.176 97.768 256.264 98.696 255.56 99.912C254.888 101.096 254.552 102.52 254.552 104.184C254.552 105.816 254.888 107.24 255.56 108.456C256.264 109.672 257.176 110.6 258.296 111.24C259.448 111.88 260.744 112.2 262.184 112.2ZM269.96 117V110.952L270.2 104.136L269.72 97.32V81.384H275.672V117H269.96Z" fill="#F5F5F5"/>
<path fill-rule="evenodd" clip-rule="evenodd" d="M147.495 144.214C147.748 144.074 148.004 144.003 148.279 144C148.868 143.994 149.426 144.288 149.74 144.855L158.045 159.814C164.838 156.802 172.458 155.112 180.5 155.112C188.541 155.112 196.161 156.802 202.954 159.814L211.259 144.855C211.573 144.288 212.131 143.994 212.72 144C212.995 144.003 213.252 144.074 213.504 144.214C214.334 144.673 214.607 145.626 214.146 146.458L205.948 161.256C221.72 169.457 232.373 185.041 232.395 202.927H128.604C128.626 185.041 139.279 169.457 155.051 161.256L146.853 146.458C146.392 145.626 146.665 144.673 147.495 144.214ZM152.217 179.616C152.217 177.249 154.179 175.289 156.548 175.289C158.917 175.289 160.878 177.249 160.878 179.616C160.878 181.984 158.917 183.944 156.548 183.944C154.179 183.944 152.217 181.984 152.217 179.616ZM200.12 179.616C200.12 177.249 202.082 175.289 204.451 175.289C206.82 175.289 208.782 177.249 208.782 179.616C208.782 181.984 206.82 183.944 204.451 183.944C202.082 183.944 200.12 181.984 200.12 179.616Z" fill="url(#paint0_linear_345_25)"/>
<path d="M149.473 320.371V294.728H141.151C134.2 294.728 128.604 289.136 128.604 282.191V207.023H232.395V282.191C232.395 289.136 226.799 294.728 219.849 294.728H211.526V320.371C211.526 326.847 206.369 332 199.889 332C193.408 332 188.252 326.847 188.252 320.371V294.728H172.747V320.371C172.747 326.847 167.591 332 161.11 332C154.63 332 149.473 326.847 149.473 320.371Z" fill="url(#paint1_linear_345_25)"/>
<path d="M101 216.657C101 210.181 106.157 205.028 112.637 205.028C119.118 205.028 124.274 210.181 124.274 216.657V265.095C124.274 271.571 119.118 276.724 112.637 276.724C106.157 276.724 101 271.571 101 265.095V216.657Z" fill="url(#paint2_linear_345_25)"/>
<path d="M236.726 216.657C236.726 210.181 241.882 205.028 248.363 205.028C254.843 205.028 260 210.181 260 216.657V265.095C260 271.571 254.843 276.724 248.363 276.724C241.882 276.724 236.726 271.571 236.726 265.095V216.657Z" fill="url(#paint3_linear_345_25)"/>
<defs>
<linearGradient id="paint0_linear_345_25" x1="180.5" y1="144" x2="180.5" y2="332" gradientUnits="userSpaceOnUse">
<stop offset="0.515625" stop-color="#FCFDF8"/>
<stop offset="1" stop-color="#4155C6"/>
</linearGradient>
<linearGradient id="paint1_linear_345_25" x1="180.5" y1="144" x2="180.5" y2="332" gradientUnits="userSpaceOnUse">
<stop offset="0.515625" stop-color="#FCFDF8"/>
<stop offset="1" stop-color="#4155C6"/>
</linearGradient>
<linearGradient id="paint2_linear_345_25" x1="180.5" y1="144" x2="180.5" y2="332" gradientUnits="userSpaceOnUse">
<stop offset="0.515625" stop-color="#FCFDF8"/>
<stop offset="1" stop-color="#4155C6"/>
</linearGradient>
<linearGradient id="paint3_linear_345_25" x1="180.5" y1="144" x2="180.5" y2="332" gradientUnits="userSpaceOnUse">
<stop offset="0.515625" stop-color="#FCFDF8"/>
<stop offset="1" stop-color="#4155C6"/>
</linearGradient>
</defs>
</svg>
