<svg width="358" height="349" viewBox="0 0 358 349" fill="none" xmlns="http://www.w3.org/2000/svg">
<path d="M201.822 296.794C200.223 299.539 198.95 303.67 198.95 306.273C198.95 306.877 198.95 307.646 199.107 308.712L179.116 275.854C178.477 274.787 178 273.258 178 271.88C178 270.5 178.477 268.822 179.116 267.755L188.713 251.706L178 245.903L212.862 245.286L229.81 274.476L218.94 268.516L201.822 296.794ZM201.822 296.794C200.223 299.539 198.95 303.67 198.95 306.273C198.95 306.877 198.95 307.646 199.107 308.712L179.116 275.854C178.477 274.787 178 273.258 178 271.88C178 270.5 178.477 268.822 179.116 267.755L188.713 251.706M201.822 296.794C200.223 299.539 198.95 303.67 198.95 306.273C198.95 306.877 198.95 307.646 199.107 308.712L179.116 275.854C178.477 274.787 178 273.258 178 271.88C178 270.5 178.477 268.822 179.116 267.755L188.713 251.706L178 245.903M201.822 296.794C200.223 299.539 198.95 303.67 198.95 306.273C198.95 306.877 198.95 307.646 199.107 308.712L179.116 275.854C178.477 274.787 178 273.258 178 271.88C178 270.5 178.477 268.822 179.116 267.755L188.713 251.706L178 245.903L212.862 245.286L229.81 274.476M201.822 296.794C200.223 299.539 198.95 303.67 198.95 306.273C198.95 306.877 198.95 307.646 199.107 308.712L179.116 275.854C178.477 274.787 178 273.258 178 271.88C178 270.5 178.477 268.822 179.116 267.755L188.713 251.706L178 245.903L212.862 245.286L229.81 274.476L218.94 268.516M201.822 296.794C200.223 299.539 198.95 303.67 198.95 306.273C198.95 306.877 198.95 307.646 199.107 308.712L179.116 275.854C178.477 274.787 178 273.258 178 271.88C178 270.5 178.477 268.822 179.116 267.755L188.713 251.706L178 245.903" fill="#26D122"/>
<path d="M231.247 196.38C225.175 196.38 220.214 199.131 217.178 204.18L202.625 228.17L233.166 245.137L252.04 213.951L246.602 205.24C242.926 199.288 237.808 196.38 231.247 196.38Z" fill="#26D122"/>
<path d="M202.782 307.339C202.782 316.05 210.297 323.232 219.41 323.232V323.233H248.521V289.456H210.616L205.505 298.167C203.905 300.763 202.782 304.893 202.782 307.339Z" fill="#26D122"/>
<path d="M240.367 195C244.205 196.53 247.404 199.288 249.8 203.256L266.911 231.683L256.198 237.486L290.891 237.954L307.846 208.909L297.295 214.874L287.542 198.981C285.936 196.38 283.22 195 279.701 195H240.367Z" fill="#26D122"/>
<path d="M322.562 286.099C319.206 288.54 315.204 289.763 310.412 289.763V289.762H276.182V277.837L258.274 306.422L276.182 335V323.232H294.899C298.256 323.232 301.129 321.702 302.728 319.107L322.562 286.099Z" fill="#26D122"/>
<path d="M328 270.045C328 267.293 327.197 264.697 325.754 262.251L311.209 238.253L280.667 254.913L299.529 286.099H310.092C313.441 286.099 316.804 285.333 319.206 284.103C324.318 281.357 328 275.549 328 270.045Z" fill="#26D122"/>
<rect x="118.317" y="94.9756" width="16.0976" height="80.4878" fill="#CACACA"/>
<path d="M80.4878 72.0366L165 0V82.0976L80.4878 152.524V72.0366Z" fill="white"/>
<path d="M0.804688 72.8415L85.3169 0.804932V82.9025L0.804688 153.329V72.8415Z" fill="white"/>
<path d="M85.3169 0.804878L165 0L81.2925 72.8415H0.804688L85.3169 0.804878Z" fill="white"/>
<path d="M84.5122 80.4878H165L80.4878 152.524H0L84.5122 80.4878Z" fill="white"/>
<rect x="1.60986" y="72.439" width="80.4878" height="80.4878" rx="30" fill="black" fill-opacity="0.36"/>
<rect x="9.65869" y="80.4878" width="64.3902" height="64.3902" rx="30" fill="white"/>
<rect x="16.0977" y="86.1219" width="52.3171" height="52.3171" rx="21" fill="#0E23E9" fill-opacity="0.727883"/>
<rect x="37.0244" y="112.683" width="27.3659" height="12.0732" rx="6.03659" fill="white"/>
</svg>
