<svg width="360" height="400" viewBox="0 0 360 400" fill="none" xmlns="http://www.w3.org/2000/svg">
<rect width="360" height="400" rx="40" fill="#3FE76E" fill-opacity="0.61"/>
<path d="M141.551 117V83.4H147.791V117H141.551ZM172.623 117.48C169.999 117.48 167.583 117.048 165.375 116.184C163.167 115.32 161.247 114.12 159.615 112.584C157.983 111.016 156.719 109.192 155.823 107.112C154.927 105 154.479 102.696 154.479 100.2C154.479 97.704 154.927 95.416 155.823 93.336C156.719 91.224 157.983 89.4 159.615 87.864C161.247 86.296 163.167 85.08 165.375 84.216C167.583 83.352 169.983 82.92 172.575 82.92C175.199 82.92 177.599 83.352 179.775 84.216C181.983 85.08 183.903 86.296 185.535 87.864C187.167 89.4 188.431 91.224 189.327 93.336C190.223 95.416 190.671 97.704 190.671 100.2C190.671 102.696 190.223 105 189.327 107.112C188.431 109.224 187.167 111.048 185.535 112.584C183.903 114.12 181.983 115.32 179.775 116.184C177.599 117.048 175.215 117.48 172.623 117.48ZM172.575 112.008C174.271 112.008 175.839 111.72 177.279 111.144C178.719 110.568 179.967 109.752 181.023 108.696C182.079 107.608 182.895 106.36 183.471 104.952C184.079 103.512 184.383 101.928 184.383 100.2C184.383 98.472 184.079 96.904 183.471 95.496C182.895 94.056 182.079 92.808 181.023 91.752C179.967 90.664 178.719 89.832 177.279 89.256C175.839 88.68 174.271 88.392 172.575 88.392C170.879 88.392 169.311 88.68 167.871 89.256C166.463 89.832 165.215 90.664 164.127 91.752C163.071 92.808 162.239 94.056 161.631 95.496C161.055 96.904 160.767 98.472 160.767 100.2C160.767 101.896 161.055 103.464 161.631 104.904C162.239 106.344 163.071 107.608 164.127 108.696C165.183 109.752 166.431 110.568 167.871 111.144C169.311 111.72 170.879 112.008 172.575 112.008ZM207.701 117.48C205.077 117.48 202.565 117.112 200.165 116.376C197.765 115.608 195.861 114.632 194.453 113.448L196.613 108.6C197.957 109.656 199.621 110.536 201.605 111.24C203.589 111.944 205.621 112.296 207.701 112.296C209.461 112.296 210.885 112.104 211.973 111.72C213.061 111.336 213.861 110.824 214.373 110.184C214.885 109.512 215.141 108.76 215.141 107.928C215.141 106.904 214.773 106.088 214.037 105.48C213.301 104.84 212.341 104.344 211.157 103.992C210.005 103.608 208.709 103.256 207.269 102.936C205.861 102.616 204.437 102.248 202.997 101.832C201.589 101.384 200.293 100.824 199.109 100.152C197.957 99.448 197.013 98.52 196.277 97.368C195.541 96.216 195.173 94.744 195.173 92.952C195.173 91.128 195.653 89.464 196.613 87.96C197.605 86.424 199.093 85.208 201.077 84.312C203.093 83.384 205.637 82.92 208.709 82.92C210.725 82.92 212.725 83.176 214.709 83.688C216.693 84.2 218.421 84.936 219.893 85.896L217.925 90.744C216.421 89.848 214.869 89.192 213.269 88.776C211.669 88.328 210.133 88.104 208.661 88.104C206.933 88.104 205.525 88.312 204.437 88.728C203.381 89.144 202.597 89.688 202.085 90.36C201.605 91.032 201.365 91.8 201.365 92.664C201.365 93.688 201.717 94.52 202.421 95.16C203.157 95.768 204.101 96.248 205.253 96.6C206.437 96.952 207.749 97.304 209.189 97.656C210.629 97.976 212.053 98.344 213.461 98.76C214.901 99.176 216.197 99.72 217.349 100.392C218.533 101.064 219.477 101.976 220.181 103.128C220.917 104.28 221.285 105.736 221.285 107.496C221.285 109.288 220.789 110.952 219.797 112.488C218.837 113.992 217.349 115.208 215.333 116.136C213.317 117.032 210.773 117.48 207.701 117.48Z" fill="#302E2E"/>
<path d="M89.8461 284.352H104.897V220.282H89.8461V284.352ZM97.3411 211.88C102.056 211.88 105.743 208.253 105.743 203.72C105.743 199.127 102.056 195.5 97.3411 195.5C92.687 195.5 89 199.127 89 203.72C89 208.254 92.687 211.88 97.3411 211.88ZM155.006 195.681C129.56 195.681 113.602 213.028 113.602 240.772C113.602 268.516 129.558 285.803 155.006 285.803C180.392 285.803 196.35 268.516 196.35 240.772C196.35 213.028 180.393 195.681 155.006 195.681ZM155.006 208.978C170.54 208.978 180.452 221.309 180.452 240.772C180.452 260.174 170.54 272.505 155.006 272.505C139.412 272.505 129.56 260.174 129.56 240.772C129.56 221.309 139.412 208.978 155.006 208.978ZM202.699 259.812C203.363 275.89 216.54 285.803 236.607 285.803C257.702 285.803 271 275.406 271 258.845C271 245.85 263.505 238.536 245.795 234.487L235.762 232.19C225.063 229.651 220.651 226.266 220.651 220.464C220.651 213.21 227.3 208.375 237.152 208.375C247.125 208.375 253.954 213.271 254.68 221.431H269.549C269.187 206.078 256.493 195.681 237.273 195.681C218.293 195.681 204.814 206.138 204.814 221.612C204.814 234.063 212.43 241.8 228.507 245.487L239.81 248.147C250.811 250.746 255.284 254.373 255.284 260.659C255.284 267.912 247.97 273.11 237.454 273.11C226.816 273.11 218.777 267.852 217.81 259.812H202.699L202.699 259.812Z" fill="url(#paint0_linear_349_32)"/>
<defs>
<linearGradient id="paint0_linear_349_32" x1="180" y1="195.5" x2="180" y2="285.803" gradientUnits="userSpaceOnUse">
<stop offset="0.682292" stop-color="#FCFCFC"/>
<stop offset="1" stop-color="#86ECA2"/>
</linearGradient>
</defs>
</svg>
