<svg width="340" height="162" viewBox="0 0 340 162" fill="none" xmlns="http://www.w3.org/2000/svg">
<rect x="5" y="5" width="330" height="152" rx="35" fill="#102BBB" fill-opacity="0.78" stroke="white" stroke-width="10"/>
<path d="M34.3956 128V34.9091H69.3047C76.4562 34.9091 82.4562 36.2424 87.3047 38.9091C92.1835 41.5758 95.8653 45.2424 98.3502 49.9091C100.865 54.5455 102.123 59.8182 102.123 65.7273C102.123 71.697 100.865 77 98.3502 81.6364C95.835 86.2727 92.1229 89.9242 87.2138 92.5909C82.3047 95.2273 76.2593 96.5455 69.0774 96.5455H45.9411V82.6818H66.8047C70.9865 82.6818 74.4108 81.9545 77.0774 80.5C79.7441 79.0455 81.7138 77.0455 82.9865 74.5C84.2896 71.9545 84.9411 69.0303 84.9411 65.7273C84.9411 62.4242 84.2896 59.5152 82.9865 57C81.7138 54.4848 79.729 52.5303 77.032 51.1364C74.3653 49.7121 70.9259 49 66.7138 49H51.2593V128H34.3956Z" fill="#F5F5F5"/>
<path d="M114.936 67V41.368H120.648V48.424L119.976 46.36C120.744 44.632 121.944 43.32 123.576 42.424C125.24 41.528 127.304 41.08 129.768 41.08V46.792C129.512 46.728 129.272 46.696 129.048 46.696C128.824 46.664 128.6 46.648 128.376 46.648C126.104 46.648 124.296 47.32 122.952 48.664C121.608 49.976 120.936 51.944 120.936 54.568V67H114.936ZM146.144 67.336C143.52 67.336 141.184 66.776 139.136 65.656C137.088 64.504 135.472 62.936 134.288 60.952C133.104 58.968 132.512 56.712 132.512 54.184C132.512 51.624 133.104 49.368 134.288 47.416C135.472 45.432 137.088 43.88 139.136 42.76C141.184 41.64 143.52 41.08 146.144 41.08C148.8 41.08 151.152 41.64 153.2 42.76C155.28 43.88 156.896 45.416 158.048 47.368C159.232 49.32 159.824 51.592 159.824 54.184C159.824 56.712 159.232 58.968 158.048 60.952C156.896 62.936 155.28 64.504 153.2 65.656C151.152 66.776 148.8 67.336 146.144 67.336ZM146.144 62.2C147.616 62.2 148.928 61.88 150.08 61.24C151.232 60.6 152.128 59.672 152.768 58.456C153.44 57.24 153.776 55.816 153.776 54.184C153.776 52.52 153.44 51.096 152.768 49.912C152.128 48.696 151.232 47.768 150.08 47.128C148.928 46.488 147.632 46.168 146.192 46.168C144.72 46.168 143.408 46.488 142.256 47.128C141.136 47.768 140.24 48.696 139.568 49.912C138.896 51.096 138.56 52.52 138.56 54.184C138.56 55.816 138.896 57.24 139.568 58.456C140.24 59.672 141.136 60.6 142.256 61.24C143.408 61.88 144.704 62.2 146.144 62.2ZM177.415 67.336C174.727 67.336 172.327 66.776 170.215 65.656C168.135 64.504 166.503 62.936 165.319 60.952C164.135 58.968 163.543 56.712 163.543 54.184C163.543 51.624 164.135 49.368 165.319 47.416C166.503 45.432 168.135 43.88 170.215 42.76C172.327 41.64 174.727 41.08 177.415 41.08C179.911 41.08 182.103 41.592 183.991 42.616C185.911 43.608 187.367 45.08 188.359 47.032L183.751 49.72C182.983 48.504 182.039 47.608 180.919 47.032C179.831 46.456 178.647 46.168 177.367 46.168C175.895 46.168 174.567 46.488 173.383 47.128C172.199 47.768 171.271 48.696 170.599 49.912C169.927 51.096 169.591 52.52 169.591 54.184C169.591 55.848 169.927 57.288 170.599 58.504C171.271 59.688 172.199 60.6 173.383 61.24C174.567 61.88 175.895 62.2 177.367 62.2C178.647 62.2 179.831 61.912 180.919 61.336C182.039 60.76 182.983 59.864 183.751 58.648L188.359 61.336C187.367 63.256 185.911 64.744 183.991 65.8C182.103 66.824 179.911 67.336 177.415 67.336ZM198.782 67V45.016L200.174 46.456H189.758V41.368H213.758V46.456H203.39L204.782 45.016V67H198.782ZM228.409 67.336C225.785 67.336 223.449 66.776 221.401 65.656C219.353 64.504 217.737 62.936 216.553 60.952C215.369 58.968 214.777 56.712 214.777 54.184C214.777 51.624 215.369 49.368 216.553 47.416C217.737 45.432 219.353 43.88 221.401 42.76C223.449 41.64 225.785 41.08 228.409 41.08C231.065 41.08 233.417 41.64 235.465 42.76C237.545 43.88 239.161 45.416 240.313 47.368C241.497 49.32 242.089 51.592 242.089 54.184C242.089 56.712 241.497 58.968 240.313 60.952C239.161 62.936 237.545 64.504 235.465 65.656C233.417 66.776 231.065 67.336 228.409 67.336ZM228.409 62.2C229.881 62.2 231.193 61.88 232.345 61.24C233.497 60.6 234.393 59.672 235.033 58.456C235.705 57.24 236.041 55.816 236.041 54.184C236.041 52.52 235.705 51.096 235.033 49.912C234.393 48.696 233.497 47.768 232.345 47.128C231.193 46.488 229.897 46.168 228.457 46.168C226.985 46.168 225.673 46.488 224.521 47.128C223.401 47.768 222.505 48.696 221.833 49.912C221.161 51.096 220.825 52.52 220.825 54.184C220.825 55.816 221.161 57.24 221.833 58.456C222.505 59.672 223.401 60.6 224.521 61.24C225.673 61.88 226.969 62.2 228.409 62.2ZM130.584 126V120.816L130.248 119.712V110.64C130.248 108.88 129.72 107.52 128.664 106.56C127.608 105.568 126.008 105.072 123.864 105.072C122.424 105.072 121 105.296 119.592 105.744C118.216 106.192 117.048 106.816 116.088 107.616L113.736 103.248C115.112 102.192 116.744 101.408 118.632 100.896C120.552 100.352 122.536 100.08 124.584 100.08C128.296 100.08 131.16 100.976 133.176 102.768C135.224 104.528 136.248 107.264 136.248 110.976V126H130.584ZM122.52 126.336C120.6 126.336 118.92 126.016 117.48 125.376C116.04 124.704 114.92 123.792 114.12 122.64C113.352 121.456 112.968 120.128 112.968 118.656C112.968 117.216 113.304 115.92 113.976 114.768C114.68 113.616 115.816 112.704 117.384 112.032C118.952 111.36 121.032 111.024 123.624 111.024H131.064V115.008H124.056C122.008 115.008 120.632 115.344 119.928 116.016C119.224 116.656 118.872 117.456 118.872 118.416C118.872 119.504 119.304 120.368 120.168 121.008C121.032 121.648 122.232 121.968 123.768 121.968C125.24 121.968 126.552 121.632 127.704 120.96C128.888 120.288 129.736 119.296 130.248 117.984L131.256 121.584C130.68 123.088 129.64 124.256 128.136 125.088C126.664 125.92 124.792 126.336 122.52 126.336ZM157.881 126.336C155.801 126.336 153.897 125.856 152.169 124.896C150.473 123.936 149.113 122.496 148.089 120.576C147.097 118.624 146.601 116.16 146.601 113.184C146.601 110.176 147.081 107.712 148.041 105.792C149.033 103.872 150.377 102.448 152.073 101.52C153.769 100.56 155.705 100.08 157.881 100.08C160.409 100.08 162.633 100.624 164.553 101.712C166.505 102.8 168.041 104.32 169.161 106.272C170.313 108.224 170.889 110.528 170.889 113.184C170.889 115.84 170.313 118.16 169.161 120.144C168.041 122.096 166.505 123.616 164.553 124.704C162.633 125.792 160.409 126.336 157.881 126.336ZM143.673 135.312V100.368H149.385V106.416L149.193 113.232L149.673 120.048V135.312H143.673ZM157.209 121.2C158.649 121.2 159.929 120.88 161.049 120.24C162.201 119.6 163.113 118.672 163.785 117.456C164.457 116.24 164.793 114.816 164.793 113.184C164.793 111.52 164.457 110.096 163.785 108.912C163.113 107.696 162.201 106.768 161.049 106.128C159.929 105.488 158.649 105.168 157.209 105.168C155.769 105.168 154.473 105.488 153.321 106.128C152.169 106.768 151.257 107.696 150.585 108.912C149.913 110.096 149.577 111.52 149.577 113.184C149.577 114.816 149.913 116.24 150.585 117.456C151.257 118.672 152.169 119.6 153.321 120.24C154.473 120.88 155.769 121.2 157.209 121.2ZM195.244 126L185.98 113.712L190.876 110.688L202.3 126H195.244ZM176.86 126V100.368H182.86V126H176.86ZM181.084 115.728V110.736H189.772V115.728H181.084ZM191.452 113.904L185.836 113.232L195.244 100.368H201.676L191.452 113.904ZM217.112 126.336C214.488 126.336 212.152 125.776 210.104 124.656C208.056 123.504 206.44 121.936 205.256 119.952C204.072 117.968 203.48 115.712 203.48 113.184C203.48 110.624 204.072 108.368 205.256 106.416C206.44 104.432 208.056 102.88 210.104 101.76C212.152 100.64 214.488 100.08 217.112 100.08C219.768 100.08 222.12 100.64 224.168 101.76C226.248 102.88 227.864 104.416 229.016 106.368C230.2 108.32 230.792 110.592 230.792 113.184C230.792 115.712 230.2 117.968 229.016 119.952C227.864 121.936 226.248 123.504 224.168 124.656C222.12 125.776 219.768 126.336 217.112 126.336ZM217.112 121.2C218.584 121.2 219.896 120.88 221.048 120.24C222.2 119.6 223.096 118.672 223.736 117.456C224.408 116.24 224.744 114.816 224.744 113.184C224.744 111.52 224.408 110.096 223.736 108.912C223.096 107.696 222.2 106.768 221.048 106.128C219.896 105.488 218.6 105.168 217.16 105.168C215.688 105.168 214.376 105.488 213.224 106.128C212.104 106.768 211.208 107.696 210.536 108.912C209.864 110.096 209.528 111.52 209.528 113.184C209.528 114.816 209.864 116.24 210.536 117.456C211.208 118.672 212.104 119.6 213.224 120.24C214.376 120.88 215.672 121.2 217.112 121.2ZM236.72 126V100.368H249.248C252.352 100.368 254.784 100.944 256.544 102.096C258.336 103.248 259.232 104.88 259.232 106.992C259.232 109.072 258.4 110.704 256.736 111.888C255.072 113.04 252.864 113.616 250.112 113.616L250.832 112.128C253.936 112.128 256.24 112.704 257.744 113.856C259.28 114.976 260.048 116.624 260.048 118.8C260.048 121.072 259.2 122.848 257.504 124.128C255.808 125.376 253.232 126 249.776 126H236.72ZM242.432 121.632H249.296C250.928 121.632 252.16 121.376 252.992 120.864C253.824 120.32 254.24 119.504 254.24 118.416C254.24 117.264 253.856 116.416 253.088 115.872C252.32 115.328 251.12 115.056 249.488 115.056H242.432V121.632ZM242.432 111.072H248.72C250.256 111.072 251.408 110.8 252.176 110.256C252.976 109.68 253.376 108.88 253.376 107.856C253.376 106.8 252.976 106.016 252.176 105.504C251.408 104.992 250.256 104.736 248.72 104.736H242.432V111.072ZM284.822 126L275.558 113.712L280.454 110.688L291.878 126H284.822ZM266.438 126V100.368H272.438V126H266.438ZM270.662 115.728V110.736H279.35V115.728H270.662ZM281.03 113.904L275.414 113.232L284.822 100.368H291.254L281.03 113.904ZM311.193 126V120.816L310.857 119.712V110.64C310.857 108.88 310.329 107.52 309.273 106.56C308.217 105.568 306.617 105.072 304.473 105.072C303.033 105.072 301.609 105.296 300.201 105.744C298.825 106.192 297.657 106.816 296.697 107.616L294.345 103.248C295.721 102.192 297.353 101.408 299.241 100.896C301.161 100.352 303.145 100.08 305.193 100.08C308.905 100.08 311.769 100.976 313.785 102.768C315.833 104.528 316.857 107.264 316.857 110.976V126H311.193ZM303.129 126.336C301.209 126.336 299.529 126.016 298.089 125.376C296.649 124.704 295.529 123.792 294.729 122.64C293.961 121.456 293.577 120.128 293.577 118.656C293.577 117.216 293.913 115.92 294.585 114.768C295.289 113.616 296.425 112.704 297.993 112.032C299.561 111.36 301.641 111.024 304.233 111.024H311.673V115.008H304.665C302.617 115.008 301.241 115.344 300.537 116.016C299.833 116.656 299.481 117.456 299.481 118.416C299.481 119.504 299.913 120.368 300.777 121.008C301.641 121.648 302.841 121.968 304.377 121.968C305.849 121.968 307.161 121.632 308.313 120.96C309.497 120.288 310.345 119.296 310.857 117.984L311.865 121.584C311.289 123.088 310.249 124.256 308.745 125.088C307.273 125.92 305.401 126.336 303.129 126.336Z" fill="#F5F5F5"/>
</svg>
