<svg width="1440" height="2103" viewBox="0 0 1440 2103" fill="none" xmlns="http://www.w3.org/2000/svg">
<rect x="1440" y="2103" width="1440" height="2100" transform="rotate(-180 1440 2103)" fill="url(#paint0_linear_488_2667)"/>
<path d="M722 575L568 507" stroke="white" stroke-width="7"/>
<path d="M860 496L568 507" stroke="white" stroke-width="7"/>
<path d="M843 646L980 697" stroke="white" stroke-width="7"/>
<path d="M435 534L526 675" stroke="white" stroke-width="7"/>
<path d="M390 621L526 671" stroke="white" stroke-width="7"/>
<path d="M127.109 604.318L231 804" stroke="white" stroke-width="7"/>
<path d="M127 604L275 704" stroke="white" stroke-width="7"/>
<path d="M127 604L267 528" stroke="white" stroke-width="7"/>
<path d="M127 604L43.9999 882" stroke="white" stroke-width="7"/>
<path d="M233 804L44 882" stroke="white" stroke-width="7"/>
<path d="M171 1081L44 882" stroke="white" stroke-width="7"/>
<path d="M53 1178L44 882" stroke="white" stroke-width="7"/>
<path d="M171 1081L165 916" stroke="white" stroke-width="7"/>
<path d="M165 916L233 804" stroke="white" stroke-width="7"/>
<path d="M165 916L44 882" stroke="white" stroke-width="7"/>
<path d="M53 1178L171 1081" stroke="white" stroke-width="7"/>
<path d="M231 1265L403 1137" stroke="white" stroke-width="7"/>
<path d="M231 1265L377 1246" stroke="white" stroke-width="7"/>
<path d="M377 1246L400 1347" stroke="white" stroke-width="7"/>
<path d="M403 1137L377 1246" stroke="white" stroke-width="7"/>
<path d="M529 1187L400 1347" stroke="white" stroke-width="7"/>
<path d="M529 1187L377 1246" stroke="white" stroke-width="7"/>
<path d="M695 1159L529 1187" stroke="white" stroke-width="7"/>
<path d="M695 1159L640 1324" stroke="white" stroke-width="7"/>
<path d="M695 1159L823 1256" stroke="white" stroke-width="7"/>
<path d="M695 1159L899 1167" stroke="white" stroke-width="7"/>
<path d="M899 1166L1027.98 1324.44" stroke="white" stroke-width="7"/>
<path d="M1247 1460L1028 1328" stroke="white" stroke-width="7"/>
<path d="M1272 1665L1247 1460" stroke="white" stroke-width="7"/>
<path d="M1247 1460L1381 1405" stroke="white" stroke-width="7"/>
<path d="M1274 1665L1381 1405" stroke="white" stroke-width="7"/>
<path d="M1272 1665L1395.47 1572" stroke="white" stroke-width="7"/>
<path d="M1390 1575L1381 1405" stroke="white" stroke-width="7"/>
<path d="M1368 1805L1390 1575" stroke="white" stroke-width="7"/>
<path d="M1368 1805L1272 1665" stroke="white" stroke-width="7"/>
<path d="M1232 1883L1367 1805" stroke="white" stroke-width="7"/>
<path d="M1232 1883L1164 1799" stroke="white" stroke-width="7"/>
<path d="M1342 1981L1368 1805" stroke="white" stroke-width="7"/>
<path d="M1341 1981L1231 1883" stroke="white" stroke-width="7"/>
<path d="M1198 2052L1231 1883" stroke="white" stroke-width="7"/>
<path d="M1198 2052L1341 1981" stroke="white" stroke-width="7"/>
<path d="M1198 2052L1134 1932" stroke="white" stroke-width="7"/>
<path d="M1272 1665L1232 1883" stroke="white" stroke-width="7"/>
<path d="M1164 1799L1134 1932" stroke="white" stroke-width="7"/>
<path d="M1232 1883L1134 1932" stroke="white" stroke-width="7"/>
<path d="M1274 1665L1159.04 1811.36" stroke="white" stroke-width="7"/>
<path d="M1217 1316L1246.98 1460.44" stroke="white" stroke-width="7"/>
<path d="M1063 1172L1028 1328" stroke="white" stroke-width="7"/>
<path d="M1217 1316L1028 1328" stroke="white" stroke-width="7"/>
<path d="M1301 1173L1063 1172" stroke="white" stroke-width="7"/>
<path d="M1301 1173L1028 1328" stroke="white" stroke-width="7"/>
<path d="M1301 1173L1217 1316" stroke="white" stroke-width="7"/>
<path d="M1301 1173L1381 1405" stroke="white" stroke-width="7"/>
<path d="M1217 1316L1381 1405" stroke="white" stroke-width="7"/>
<path d="M899 1167L1063 1173" stroke="white" stroke-width="7"/>
<path d="M640 1324L823 1256" stroke="white" stroke-width="7"/>
<path d="M823 1253L899 1167" stroke="white" stroke-width="7"/>
<path d="M823 1253L1027.98 1324.44" stroke="white" stroke-width="7"/>
<path d="M640 1324L529 1187" stroke="white" stroke-width="7"/>
<path d="M640 1324L400 1347" stroke="white" stroke-width="7"/>
<path d="M526 1187L403 1137" stroke="white" stroke-width="7"/>
<path d="M231 1265L400 1347" stroke="white" stroke-width="7"/>
<path d="M53 1178L231 1265" stroke="white" stroke-width="7"/>
<path d="M53 1178L138 1320" stroke="white" stroke-width="7"/>
<path d="M138 1320L231 1267" stroke="white" stroke-width="7"/>
<path d="M138 1320L400 1347" stroke="white" stroke-width="7"/>
<path d="M171 1081L231 1265" stroke="white" stroke-width="7"/>
<path d="M390 622L275 704" stroke="white" stroke-width="7"/>
<path d="M435 534L267 528" stroke="white" stroke-width="7"/>
<path d="M267 528L275 704" stroke="white" stroke-width="7"/>
<path d="M267 528L390 622" stroke="white" stroke-width="7"/>
<path d="M233 804L275 704" stroke="white" stroke-width="7"/>
<path d="M435 534L390 621" stroke="white" stroke-width="7"/>
<path d="M568 507L435 534" stroke="white" stroke-width="7"/>
<path d="M681 704L526 671" stroke="white" stroke-width="7"/>
<path d="M722 575L526 671" stroke="white" stroke-width="7"/>
<path d="M568 507L526 671" stroke="white" stroke-width="7"/>
<path d="M862.57 498.646L932.435 575.129" stroke="white" stroke-width="7"/>
<path d="M932.435 575.129L843.378 645.203" stroke="white" stroke-width="7"/>
<path d="M721.623 574.615L843.377 645.203" stroke="white" stroke-width="7"/>
<path d="M859.854 496.678L721.623 574.615" stroke="white" stroke-width="7"/>
<path d="M721.623 574.615L680.514 704.264" stroke="white" stroke-width="7"/>
<path d="M859.854 496.678L843.377 645.203" stroke="white" stroke-width="7"/>
<path d="M843.377 645.203L680.515 704.264" stroke="white" stroke-width="7"/>
<path d="M977.773 693.505L937.456 576.712" stroke="white" stroke-width="7"/>
<path d="M937.457 576.712L1068.12 542.114" stroke="white" stroke-width="7"/>
<path d="M1168.04 676.998L1068.12 542.114" stroke="white" stroke-width="7"/>
<path d="M979.817 696.943L1168.04 676.998" stroke="white" stroke-width="7"/>
<path d="M1168.04 676.998L1274.38 554.487" stroke="white" stroke-width="7"/>
<path d="M979.817 696.943L1068.12 542.114" stroke="white" stroke-width="7"/>
<path d="M1068.12 542.114L1274.38 554.487" stroke="white" stroke-width="7"/>
<path d="M1384.93 223.887L1216 197" stroke="white" stroke-width="7"/>
<path d="M1303 70L1216 197" stroke="white" stroke-width="7"/>
<path d="M1352 3L1303 70" stroke="white" stroke-width="7"/>
<path d="M1303 70L1252 3" stroke="white" stroke-width="7"/>
<path d="M1127 3L1216 197" stroke="white" stroke-width="7"/>
<path d="M1389 226L1303 70" stroke="white" stroke-width="7"/>
<path d="M1216 197L1239 394" stroke="white" stroke-width="7"/>
<path d="M1391.5 428.106L1239 394" stroke="white" stroke-width="7"/>
<path d="M1388.84 225.622L1391.5 428.106" stroke="white" stroke-width="7"/>
<path d="M1391.5 428.106L1274.83 556.6" stroke="white" stroke-width="7"/>
<path d="M1388.84 225.622L1239 394" stroke="white" stroke-width="7"/>
<path d="M1239 394L1274.83 556.6" stroke="white" stroke-width="7"/>
<circle cx="568.09" cy="506.929" r="29.1774" transform="rotate(-59.6084 568.09 506.929)" fill="white"/>
<circle cx="843.377" cy="645.203" r="25.1521" transform="rotate(125.916 843.377 645.203)" fill="white"/>
<circle cx="526.442" cy="671.442" r="21.238" transform="rotate(116.256 526.442 671.442)" fill="white"/>
<circle cx="389.525" cy="620.525" r="20.5529" transform="rotate(116.256 389.525 620.525)" fill="white"/>
<circle cx="52.5242" cy="1177.52" r="20.5529" transform="rotate(116.256 52.5242 1177.52)" fill="white"/>
<path d="M428.877 546.577C422.09 543.229 419.302 535.014 422.65 528.227C425.998 521.44 434.213 518.652 441 522C447.786 525.348 450.574 533.563 447.227 540.35C443.879 547.136 435.664 549.924 428.877 546.577Z" fill="white"/>
<path d="M215.671 824.812C204.255 815.164 202.821 798.088 212.469 786.671C222.117 775.255 239.193 773.821 250.61 783.469C262.026 793.117 263.46 810.193 253.812 821.61C244.164 833.027 227.088 834.46 215.671 824.812Z" fill="white"/>
<path d="M149.641 933.764C139.591 925.271 138.328 910.238 146.822 900.188C155.315 890.138 170.347 888.876 180.397 897.369C190.447 905.862 191.71 920.895 183.216 930.945C174.723 940.995 159.691 942.257 149.641 933.764Z" fill="white"/>
<path d="M147.188 1109.2C131.62 1096.04 129.665 1072.76 142.822 1057.19C155.978 1041.62 179.263 1039.67 194.831 1052.82C210.399 1065.98 212.354 1089.26 199.198 1104.83C186.042 1120.4 162.756 1122.35 147.188 1109.2Z" fill="white"/>
<path d="M218.202 1280.25C209.806 1273.15 208.752 1260.6 215.847 1252.2C222.942 1243.81 235.5 1242.75 243.895 1249.85C252.291 1256.94 253.345 1269.5 246.25 1277.89C239.155 1286.29 226.597 1287.34 218.202 1280.25Z" fill="white"/>
<path d="M385.24 1158.04C373.627 1148.22 372.168 1130.85 381.982 1119.24C391.796 1107.63 409.166 1106.17 420.779 1115.98C432.392 1125.8 433.851 1143.17 424.037 1154.78C414.223 1166.39 396.853 1167.85 385.24 1158.04Z" fill="white"/>
<path d="M385.902 1364.09C376.567 1356.2 375.395 1342.24 383.284 1332.9C391.173 1323.57 405.136 1322.4 414.471 1330.28C423.806 1338.17 424.978 1352.14 417.089 1361.47C409.2 1370.81 395.237 1371.98 385.902 1364.09Z" fill="white"/>
<path d="M512.331 1206C501.655 1196.98 500.314 1181.01 509.336 1170.33C518.359 1159.65 534.328 1158.31 545.004 1167.34C555.68 1176.36 557.021 1192.33 547.999 1203C538.976 1213.68 523.007 1215.02 512.331 1206Z" fill="white"/>
<path d="M705.888 1169.73C699.891 1175.82 690.098 1175.89 684.015 1169.89C677.931 1163.89 677.862 1154.1 683.859 1148.01C689.856 1141.93 699.649 1141.86 705.732 1147.86C711.816 1153.86 711.885 1163.65 705.888 1169.73Z" fill="white"/>
<path d="M1048.24 1347.96C1037.28 1359.09 1019.49 1359.33 1008.52 1348.51C997.541 1337.69 997.533 1319.9 1008.5 1308.78C1019.46 1297.66 1037.25 1297.41 1048.22 1308.23C1059.2 1319.05 1059.21 1336.84 1048.24 1347.96Z" fill="white"/>
<path d="M655.226 1339.01C647.028 1347.33 633.641 1347.42 625.325 1339.23C617.009 1331.03 616.914 1317.64 625.112 1309.32C633.31 1301.01 646.697 1300.91 655.013 1309.11C663.329 1317.31 663.424 1330.7 655.226 1339.01Z" fill="white"/>
<path d="M823.653 1213C845.549 1213.56 862.85 1231.76 862.296 1253.65C861.741 1275.55 843.542 1292.85 821.646 1292.3C799.75 1291.74 782.449 1273.54 783.004 1251.65C783.558 1229.75 801.757 1212.45 823.653 1213Z" fill="white"/>
<path d="M891.004 1148.06C901.499 1143.61 913.616 1148.51 918.067 1159C922.518 1169.5 917.618 1181.62 907.123 1186.07C896.627 1190.52 884.511 1185.62 880.06 1175.12C875.608 1164.63 880.508 1152.51 891.004 1148.06Z" fill="white"/>
<path d="M1055 1154.06C1065.5 1149.61 1077.62 1154.51 1082.07 1165C1086.52 1175.5 1081.62 1187.62 1071.12 1192.07C1060.63 1196.52 1048.51 1191.62 1044.06 1181.12C1039.61 1170.63 1044.51 1158.51 1055 1154.06Z" fill="white"/>
<path d="M1209 1297.06C1219.5 1292.61 1231.62 1297.51 1236.07 1308C1240.52 1318.5 1235.62 1330.62 1225.12 1335.07C1214.63 1339.52 1202.51 1334.62 1198.06 1324.12C1193.61 1313.63 1198.51 1301.51 1209 1297.06Z" fill="white"/>
<path d="M1293 1154.06C1303.5 1149.61 1315.62 1154.51 1320.07 1165C1324.52 1175.5 1319.62 1187.62 1309.12 1192.07C1298.63 1196.52 1286.51 1191.62 1282.06 1181.12C1277.61 1170.63 1282.51 1158.51 1293 1154.06Z" fill="white"/>
<path d="M1373 1386.06C1383.5 1381.61 1395.62 1386.51 1400.07 1397C1404.52 1407.5 1399.62 1419.62 1389.12 1424.07C1378.63 1428.52 1366.51 1423.62 1362.06 1413.12C1357.61 1402.63 1362.51 1390.51 1373 1386.06Z" fill="white"/>
<path d="M1236.74 1435.72C1250.18 1430.02 1265.71 1436.29 1271.41 1449.74C1277.11 1463.18 1270.83 1478.71 1257.39 1484.41C1243.94 1490.11 1228.42 1483.83 1222.72 1470.39C1217.02 1456.94 1223.29 1441.42 1236.74 1435.72Z" fill="white"/>
<path d="M1258.5 1633.09C1276.16 1625.6 1296.55 1633.85 1304.04 1651.5C1311.52 1669.16 1303.28 1689.55 1285.62 1697.03C1267.97 1704.52 1247.58 1696.28 1240.09 1678.62C1232.6 1660.96 1240.85 1640.58 1258.5 1633.09Z" fill="white"/>
<path d="M1357.09 1781.22C1370.4 1775.57 1385.76 1781.79 1391.4 1795.09C1397.05 1808.4 1390.84 1823.76 1377.53 1829.4C1364.22 1835.05 1348.86 1828.84 1343.22 1815.53C1337.57 1802.22 1343.79 1786.86 1357.09 1781.22Z" fill="white"/>
<path d="M1336.56 1970.02C1342.83 1967.36 1350.07 1970.28 1352.73 1976.56C1355.4 1982.83 1352.47 1990.07 1346.19 1992.73C1339.92 1995.4 1332.68 1992.47 1330.02 1986.19C1327.36 1979.92 1330.28 1972.68 1336.56 1970.02Z" fill="white"/>
<path d="M1223.52 1864.85C1233.75 1860.52 1245.56 1865.29 1249.9 1875.52C1254.24 1885.75 1249.46 1897.56 1239.23 1901.9C1229 1906.23 1217.19 1901.46 1212.86 1891.23C1208.52 1881 1213.29 1869.19 1223.52 1864.85Z" fill="white"/>
<path d="M1121.1 1901.19C1138.28 1893.91 1158.11 1901.92 1165.39 1919.1C1172.68 1936.28 1164.66 1956.11 1147.48 1963.39C1130.3 1970.68 1110.47 1962.66 1103.19 1945.48C1095.91 1928.3 1103.92 1908.47 1121.1 1901.19Z" fill="white"/>
<path d="M1192.59 2038.84C1200.01 2035.7 1208.59 2039.16 1211.74 2046.59C1214.89 2054.01 1211.42 2062.59 1203.99 2065.74C1196.57 2068.89 1187.99 2065.42 1184.84 2057.99C1181.7 2050.57 1185.16 2041.99 1192.59 2038.84Z" fill="white"/>
<path d="M1149.48 1791.23C1153.53 1783.45 1163.12 1780.42 1170.9 1784.48C1178.68 1788.53 1181.71 1798.12 1177.65 1805.9C1173.6 1813.68 1164.01 1816.71 1156.23 1812.65C1148.45 1808.6 1145.42 1799.01 1149.48 1791.23Z" fill="white"/>
<path d="M1383.18 1559.56C1391.45 1556.05 1401 1559.91 1404.51 1568.18C1408.01 1576.45 1404.15 1586 1395.88 1589.51C1387.61 1593.01 1378.06 1589.15 1374.56 1580.88C1371.05 1572.61 1374.91 1563.06 1383.18 1559.56Z" fill="white"/>
<path d="M122.366 1338.52C112.143 1329.88 110.859 1314.59 119.499 1304.37C128.139 1294.14 143.43 1292.86 153.654 1301.5C163.877 1310.14 165.161 1325.43 156.521 1335.65C147.882 1345.88 132.59 1347.16 122.366 1338.52Z" fill="white"/>
<path d="M360.77 1266.25C349.851 1257.02 348.48 1240.69 357.707 1229.77C366.935 1218.85 383.266 1217.48 394.185 1226.71C405.104 1235.93 406.475 1252.27 397.248 1263.19C388.02 1274.1 371.689 1275.47 360.77 1266.25Z" fill="white"/>
<path d="M30.8088 907.35C16.5548 900.318 10.6994 883.063 17.7305 868.809C24.7616 854.555 42.0167 848.7 56.2708 855.731C70.5249 862.762 76.3802 880.017 69.3491 894.271C62.318 908.525 45.0629 914.381 30.8088 907.35Z" fill="white"/>
<path d="M269.288 716.638C262.501 713.291 259.714 705.075 263.061 698.288C266.409 691.502 274.624 688.714 281.411 692.062C288.198 695.409 290.985 703.625 287.638 710.411C284.29 717.198 276.075 719.986 269.288 716.638Z" fill="white"/>
<path d="M106.276 628.069C92.8688 616.739 91.1851 596.684 102.516 583.277C113.846 569.869 133.901 568.185 147.308 579.516C160.716 590.847 162.4 610.901 151.069 624.309C139.738 637.716 119.684 639.4 106.276 628.069Z" fill="white"/>
<circle cx="721.623" cy="574.615" r="25.9905" transform="rotate(125.916 721.623 574.615)" fill="white"/>
<circle cx="267.295" cy="528.295" r="25.9905" transform="rotate(125.916 267.295 528.295)" fill="white"/>
<circle cx="859.854" cy="496.678" r="16.7681" transform="rotate(125.916 859.854 496.678)" fill="white"/>
<circle cx="680.515" cy="704.264" r="16.7681" transform="rotate(125.916 680.515 704.264)" fill="white"/>
<circle cx="937.457" cy="576.712" r="25" transform="rotate(-30.7185 937.457 576.712)" fill="white"/>
<circle cx="1168.04" cy="676.997" r="31" transform="rotate(-157.347 1168.04 676.997)" fill="white"/>
<circle cx="1068.12" cy="542.114" r="30" transform="rotate(138.985 1068.12 542.114)" fill="white"/>
<circle cx="979.817" cy="696.943" r="20" transform="rotate(-30.7185 979.817 696.943)" fill="white"/>
<circle cx="26.7471" cy="26.7471" r="26.7471" transform="matrix(-0.40541 0.914135 0.914135 0.40541 1202.69 162)" fill="white"/>
<circle cx="18.2845" cy="18.2845" r="18.2845" transform="matrix(-0.40541 0.914135 0.914135 0.40541 1293.99 46.1667)" fill="white"/>
<circle cx="33.1664" cy="33.1664" r="33.1664" transform="matrix(0.742068 0.670325 0.670325 -0.742068 1344.66 430.485)" fill="white"/>
<circle cx="32.0965" cy="32.0965" r="32.0965" transform="matrix(-0.794236 -0.607609 -0.607609 0.794236 1284.35 388.363)" fill="white"/>
<circle cx="21.3977" cy="21.3977" r="21.3977" transform="matrix(0.898011 -0.439972 -0.439972 -0.898011 1379.04 254.251)" fill="white"/>
<circle cx="21.3977" cy="21.3977" r="21.3977" transform="matrix(0.941953 -0.335745 -0.335745 -0.941953 1261.86 583.94)" fill="white"/>
<defs>
<linearGradient id="paint0_linear_488_2667" x1="2880" y1="4203" x2="944.536" y2="3531.88" gradientUnits="userSpaceOnUse">
<stop offset="0.0885417" stop-color="#3FE76E" stop-opacity="0.61"/>
<stop offset="0.729167" stop-color="#1533CE" stop-opacity="0.78"/>
<stop offset="0.973958" stop-color="#102BBB" stop-opacity="0.78"/>
</linearGradient>
</defs>
</svg>
