<svg width="1434" height="2072" viewBox="0 0 1434 2072" fill="none" xmlns="http://www.w3.org/2000/svg">
<path d="M717 575L563 507" stroke="white" stroke-width="7"/>
<path d="M855 496L563 507" stroke="white" stroke-width="7"/>
<path d="M838 646L975 697" stroke="white" stroke-width="7"/>
<path d="M430 534L521 675" stroke="white" stroke-width="7"/>
<path d="M385 621L521 671" stroke="white" stroke-width="7"/>
<path d="M122.11 604.318L226 804" stroke="white" stroke-width="7"/>
<path d="M122 604L270 704" stroke="white" stroke-width="7"/>
<path d="M122 604L262 528" stroke="white" stroke-width="7"/>
<path d="M122 604L39.0004 882" stroke="white" stroke-width="7"/>
<path d="M228 804L39.0003 882" stroke="white" stroke-width="7"/>
<path d="M166 1081L39.0002 882" stroke="white" stroke-width="7"/>
<path d="M48.0002 1178L39.0002 882" stroke="white" stroke-width="7"/>
<path d="M166 1081L160 916" stroke="white" stroke-width="7"/>
<path d="M160 916L228 804" stroke="white" stroke-width="7"/>
<path d="M160 916L39.0002 882" stroke="white" stroke-width="7"/>
<path d="M48.0002 1178L166 1081" stroke="white" stroke-width="7"/>
<path d="M226 1265L398 1137" stroke="white" stroke-width="7"/>
<path d="M226 1265L372 1246" stroke="white" stroke-width="7"/>
<path d="M372 1246L395 1347" stroke="white" stroke-width="7"/>
<path d="M398 1137L372 1246" stroke="white" stroke-width="7"/>
<path d="M524 1187L395 1347" stroke="white" stroke-width="7"/>
<path d="M524 1187L372 1246" stroke="white" stroke-width="7"/>
<path d="M690 1159L524 1187" stroke="white" stroke-width="7"/>
<path d="M690 1159L635 1324" stroke="white" stroke-width="7"/>
<path d="M690 1159L818 1256" stroke="white" stroke-width="7"/>
<path d="M690 1159L894 1167" stroke="white" stroke-width="7"/>
<path d="M894 1166L1022.98 1324.44" stroke="white" stroke-width="7"/>
<path d="M1242 1460L1023 1328" stroke="white" stroke-width="7"/>
<path d="M1267 1665L1242 1460" stroke="white" stroke-width="7"/>
<path d="M1242 1460L1376 1405" stroke="white" stroke-width="7"/>
<path d="M1269 1665L1376 1405" stroke="white" stroke-width="7"/>
<path d="M1267 1665L1390.47 1572" stroke="white" stroke-width="7"/>
<path d="M1385 1575L1376 1405" stroke="white" stroke-width="7"/>
<path d="M1363 1805L1385 1575" stroke="white" stroke-width="7"/>
<path d="M1363 1805L1267 1665" stroke="white" stroke-width="7"/>
<path d="M1227 1883L1362 1805" stroke="white" stroke-width="7"/>
<path d="M1227 1883L1159 1799" stroke="white" stroke-width="7"/>
<path d="M1337 1981L1363 1805" stroke="white" stroke-width="7"/>
<path d="M1336 1981L1226 1883" stroke="white" stroke-width="7"/>
<path d="M1193 2052L1226 1883" stroke="white" stroke-width="7"/>
<path d="M1193 2052L1336 1981" stroke="white" stroke-width="7"/>
<path d="M1193 2052L1129 1932" stroke="white" stroke-width="7"/>
<path d="M1267 1665L1227 1883" stroke="white" stroke-width="7"/>
<path d="M1159 1799L1129 1932" stroke="white" stroke-width="7"/>
<path d="M1227 1883L1129 1932" stroke="white" stroke-width="7"/>
<path d="M1269 1665L1154.04 1811.36" stroke="white" stroke-width="7"/>
<path d="M1212 1316L1241.98 1460.44" stroke="white" stroke-width="7"/>
<path d="M1058 1172L1023 1328" stroke="white" stroke-width="7"/>
<path d="M1212 1316L1023 1328" stroke="white" stroke-width="7"/>
<path d="M1296 1173L1058 1172" stroke="white" stroke-width="7"/>
<path d="M1296 1173L1023 1328" stroke="white" stroke-width="7"/>
<path d="M1296 1173L1212 1316" stroke="white" stroke-width="7"/>
<path d="M1296 1173L1376 1405" stroke="white" stroke-width="7"/>
<path d="M1212 1316L1376 1405" stroke="white" stroke-width="7"/>
<path d="M894 1167L1058 1173" stroke="white" stroke-width="7"/>
<path d="M635 1324L818 1256" stroke="white" stroke-width="7"/>
<path d="M818 1253L894 1167" stroke="white" stroke-width="7"/>
<path d="M818 1253L1022.98 1324.44" stroke="white" stroke-width="7"/>
<path d="M635 1324L524 1187" stroke="white" stroke-width="7"/>
<path d="M635 1324L395 1347" stroke="white" stroke-width="7"/>
<path d="M521 1187L398 1137" stroke="white" stroke-width="7"/>
<path d="M226 1265L395 1347" stroke="white" stroke-width="7"/>
<path d="M48.0002 1178L226 1265" stroke="white" stroke-width="7"/>
<path d="M48.0002 1178L133 1320" stroke="white" stroke-width="7"/>
<path d="M133 1320L226 1267" stroke="white" stroke-width="7"/>
<path d="M133 1320L395 1347" stroke="white" stroke-width="7"/>
<path d="M166 1081L226 1265" stroke="white" stroke-width="7"/>
<path d="M385 622L270 704" stroke="white" stroke-width="7"/>
<path d="M430 534L262 528" stroke="white" stroke-width="7"/>
<path d="M262 528L270 704" stroke="white" stroke-width="7"/>
<path d="M262 528L385 622" stroke="white" stroke-width="7"/>
<path d="M228 804L270 704" stroke="white" stroke-width="7"/>
<path d="M430 534L385 621" stroke="white" stroke-width="7"/>
<path d="M563 507L430 534" stroke="white" stroke-width="7"/>
<path d="M676 704L521 671" stroke="white" stroke-width="7"/>
<path d="M717 575L521 671" stroke="white" stroke-width="7"/>
<path d="M563 507L521 671" stroke="white" stroke-width="7"/>
<path d="M857.57 498.646L927.435 575.129" stroke="white" stroke-width="7"/>
<path d="M927.435 575.129L838.378 645.203" stroke="white" stroke-width="7"/>
<path d="M716.623 574.615L838.378 645.203" stroke="white" stroke-width="7"/>
<path d="M854.854 496.678L716.623 574.615" stroke="white" stroke-width="7"/>
<path d="M716.623 574.615L675.515 704.264" stroke="white" stroke-width="7"/>
<path d="M854.854 496.678L838.378 645.203" stroke="white" stroke-width="7"/>
<path d="M838.378 645.203L675.515 704.264" stroke="white" stroke-width="7"/>
<path d="M972.774 693.505L932.457 576.712" stroke="white" stroke-width="7"/>
<path d="M932.457 576.712L1063.12 542.114" stroke="white" stroke-width="7"/>
<path d="M1163.04 676.998L1063.12 542.114" stroke="white" stroke-width="7"/>
<path d="M974.817 696.943L1163.04 676.998" stroke="white" stroke-width="7"/>
<path d="M1163.04 676.998L1269.38 554.487" stroke="white" stroke-width="7"/>
<path d="M974.817 696.943L1063.12 542.114" stroke="white" stroke-width="7"/>
<path d="M1063.12 542.114L1269.38 554.487" stroke="white" stroke-width="7"/>
<path d="M1379.93 223.887L1211 197" stroke="white" stroke-width="7"/>
<path d="M1298 70L1211 197" stroke="white" stroke-width="7"/>
<path d="M1347 3L1298 70" stroke="white" stroke-width="7"/>
<path d="M1298 70L1247 3" stroke="white" stroke-width="7"/>
<path d="M1122 3L1211 197" stroke="white" stroke-width="7"/>
<path d="M1384 226L1298 70" stroke="white" stroke-width="7"/>
<path d="M1211 197L1234 394" stroke="white" stroke-width="7"/>
<path d="M1386.5 428.106L1234 394" stroke="white" stroke-width="7"/>
<path d="M1383.84 225.622L1386.5 428.106" stroke="white" stroke-width="7"/>
<path d="M1386.5 428.106L1269.83 556.6" stroke="white" stroke-width="7"/>
<path d="M1383.84 225.622L1234 394" stroke="white" stroke-width="7"/>
<path d="M1234 394L1269.83 556.6" stroke="white" stroke-width="7"/>
<circle cx="563.09" cy="506.929" r="29.1774" transform="rotate(-59.6084 563.09 506.929)" fill="white"/>
<circle cx="838.377" cy="645.203" r="25.1521" transform="rotate(125.916 838.377 645.203)" fill="white"/>
<circle cx="521.442" cy="671.442" r="21.238" transform="rotate(116.256 521.442 671.442)" fill="white"/>
<circle cx="384.525" cy="620.525" r="20.5529" transform="rotate(116.256 384.525 620.525)" fill="white"/>
<circle cx="47.5247" cy="1177.52" r="20.5529" transform="rotate(116.256 47.5247 1177.52)" fill="white"/>
<path d="M423.877 546.577C417.091 543.229 414.303 535.014 417.65 528.227C420.998 521.44 429.213 518.652 436 522C442.787 525.348 445.575 533.563 442.227 540.35C438.879 547.136 430.664 549.924 423.877 546.577Z" fill="white"/>
<path d="M210.672 824.812C199.255 815.164 197.821 798.088 207.469 786.671C217.117 775.255 234.194 773.821 245.61 783.469C257.027 793.117 258.46 810.193 248.812 821.61C239.164 833.027 222.088 834.46 210.672 824.812Z" fill="white"/>
<path d="M144.641 933.764C134.591 925.271 133.328 910.238 141.822 900.188C150.315 890.138 165.347 888.876 175.397 897.369C185.447 905.862 186.71 920.895 178.216 930.945C169.723 940.995 154.691 942.257 144.641 933.764Z" fill="white"/>
<path d="M142.188 1109.2C126.62 1096.04 124.665 1072.76 137.822 1057.19C150.978 1041.62 174.263 1039.67 189.831 1052.82C205.399 1065.98 207.354 1089.26 194.198 1104.83C181.042 1120.4 157.756 1122.35 142.188 1109.2Z" fill="white"/>
<path d="M213.202 1280.25C204.806 1273.15 203.752 1260.6 210.847 1252.2C217.942 1243.81 230.499 1242.75 238.895 1249.85C247.29 1256.94 248.345 1269.5 241.25 1277.89C234.155 1286.29 221.597 1287.34 213.202 1280.25Z" fill="white"/>
<path d="M380.24 1158.04C368.627 1148.22 367.169 1130.85 376.983 1119.24C386.797 1107.63 404.167 1106.17 415.78 1115.98C427.393 1125.8 428.851 1143.17 419.037 1154.78C409.223 1166.39 391.853 1167.85 380.24 1158.04Z" fill="white"/>
<path d="M380.902 1364.09C371.567 1356.2 370.395 1342.24 378.284 1332.9C386.173 1323.57 400.136 1322.39 409.471 1330.28C418.806 1338.17 419.978 1352.14 412.089 1361.47C404.2 1370.81 390.237 1371.98 380.902 1364.09Z" fill="white"/>
<path d="M507.331 1206C496.655 1196.98 495.314 1181.01 504.336 1170.33C513.359 1159.65 529.328 1158.31 540.004 1167.34C550.68 1176.36 552.021 1192.33 542.999 1203C533.976 1213.68 518.007 1215.02 507.331 1206Z" fill="white"/>
<path d="M700.888 1169.73C694.891 1175.82 685.098 1175.89 679.015 1169.89C672.931 1163.89 672.862 1154.1 678.859 1148.01C684.856 1141.93 694.649 1141.86 700.732 1147.86C706.816 1153.86 706.885 1163.65 700.888 1169.73Z" fill="white"/>
<path d="M1043.24 1347.96C1032.28 1359.09 1014.49 1359.33 1003.52 1348.51C992.541 1337.69 992.533 1319.9 1003.5 1308.78C1014.46 1297.66 1032.25 1297.41 1043.22 1308.23C1054.2 1319.05 1054.21 1336.84 1043.24 1347.96Z" fill="white"/>
<path d="M650.226 1339.01C642.028 1347.33 628.641 1347.42 620.325 1339.23C612.009 1331.03 611.914 1317.64 620.112 1309.32C628.31 1301.01 641.697 1300.91 650.013 1309.11C658.329 1317.31 658.424 1330.7 650.226 1339.01Z" fill="white"/>
<path d="M818.653 1213C840.549 1213.56 857.85 1231.76 857.296 1253.65C856.741 1275.55 838.542 1292.85 816.646 1292.3C794.75 1291.74 777.449 1273.54 778.004 1251.65C778.558 1229.75 796.757 1212.45 818.653 1213Z" fill="white"/>
<path d="M886.004 1148.06C896.499 1143.61 908.616 1148.51 913.067 1159C917.518 1169.5 912.618 1181.62 902.123 1186.07C891.627 1190.52 879.511 1185.62 875.06 1175.12C870.608 1164.63 875.508 1152.51 886.004 1148.06Z" fill="white"/>
<path d="M1050 1154.06C1060.5 1149.61 1072.62 1154.51 1077.07 1165C1081.52 1175.5 1076.62 1187.62 1066.12 1192.07C1055.63 1196.52 1043.51 1191.62 1039.06 1181.12C1034.61 1170.63 1039.51 1158.51 1050 1154.06Z" fill="white"/>
<path d="M1204 1297.06C1214.5 1292.61 1226.62 1297.51 1231.07 1308C1235.52 1318.5 1230.62 1330.62 1220.12 1335.07C1209.63 1339.52 1197.51 1334.62 1193.06 1324.12C1188.61 1313.63 1193.51 1301.51 1204 1297.06Z" fill="white"/>
<path d="M1288 1154.06C1298.5 1149.61 1310.62 1154.51 1315.07 1165C1319.52 1175.5 1314.62 1187.62 1304.12 1192.07C1293.63 1196.52 1281.51 1191.62 1277.06 1181.12C1272.61 1170.63 1277.51 1158.51 1288 1154.06Z" fill="white"/>
<path d="M1368 1386.06C1378.5 1381.61 1390.62 1386.51 1395.07 1397C1399.52 1407.5 1394.62 1419.62 1384.12 1424.07C1373.63 1428.52 1361.51 1423.62 1357.06 1413.12C1352.61 1402.63 1357.51 1390.51 1368 1386.06Z" fill="white"/>
<path d="M1231.74 1435.72C1245.18 1430.02 1260.71 1436.29 1266.41 1449.74C1272.11 1463.18 1265.83 1478.71 1252.39 1484.41C1238.94 1490.11 1223.42 1483.83 1217.72 1470.39C1212.02 1456.94 1218.29 1441.42 1231.74 1435.72Z" fill="white"/>
<path d="M1253.5 1633.09C1271.16 1625.6 1291.55 1633.85 1299.04 1651.5C1306.52 1669.16 1298.28 1689.55 1280.62 1697.03C1262.97 1704.52 1242.58 1696.28 1235.09 1678.62C1227.6 1660.96 1235.85 1640.58 1253.5 1633.09Z" fill="white"/>
<path d="M1352.09 1781.22C1365.4 1775.57 1380.76 1781.79 1386.4 1795.09C1392.05 1808.4 1385.84 1823.76 1372.53 1829.4C1359.22 1835.05 1343.86 1828.84 1338.22 1815.53C1332.57 1802.22 1338.79 1786.86 1352.09 1781.22Z" fill="white"/>
<path d="M1331.56 1970.02C1337.83 1967.36 1345.07 1970.28 1347.74 1976.56C1350.4 1982.83 1347.47 1990.07 1341.19 1992.73C1334.92 1995.4 1327.68 1992.47 1325.02 1986.19C1322.36 1979.92 1325.28 1972.68 1331.56 1970.02Z" fill="white"/>
<path d="M1218.52 1864.85C1228.75 1860.52 1240.56 1865.29 1244.9 1875.52C1249.23 1885.75 1244.46 1897.56 1234.23 1901.9C1224 1906.23 1212.19 1901.46 1207.86 1891.23C1203.52 1881 1208.29 1869.19 1218.52 1864.85Z" fill="white"/>
<path d="M1116.1 1901.19C1133.28 1893.91 1153.11 1901.92 1160.39 1919.1C1167.68 1936.28 1159.66 1956.11 1142.48 1963.39C1125.3 1970.68 1105.47 1962.66 1098.19 1945.48C1090.91 1928.3 1098.92 1908.47 1116.1 1901.19Z" fill="white"/>
<path d="M1187.59 2038.84C1195.01 2035.7 1203.59 2039.16 1206.74 2046.59C1209.89 2054.01 1206.42 2062.59 1198.99 2065.74C1191.57 2068.89 1182.99 2065.42 1179.84 2057.99C1176.7 2050.57 1180.16 2041.99 1187.59 2038.84Z" fill="white"/>
<path d="M1144.48 1791.23C1148.53 1783.45 1158.12 1780.42 1165.9 1784.48C1173.68 1788.53 1176.71 1798.12 1172.65 1805.9C1168.6 1813.68 1159.01 1816.71 1151.23 1812.65C1143.45 1808.6 1140.42 1799.01 1144.48 1791.23Z" fill="white"/>
<path d="M1378.18 1559.56C1386.45 1556.05 1396 1559.91 1399.51 1568.18C1403.01 1576.45 1399.15 1586 1390.88 1589.51C1382.61 1593.01 1373.06 1589.15 1369.56 1580.88C1366.05 1572.61 1369.91 1563.06 1378.18 1559.56Z" fill="white"/>
<path d="M117.366 1338.52C107.143 1329.88 105.859 1314.59 114.499 1304.37C123.138 1294.14 138.43 1292.86 148.654 1301.5C158.877 1310.14 160.161 1325.43 151.521 1335.65C142.881 1345.88 127.59 1347.16 117.366 1338.52Z" fill="white"/>
<path d="M355.77 1266.25C344.852 1257.02 343.48 1240.69 352.708 1229.77C361.935 1218.85 378.266 1217.48 389.185 1226.71C400.104 1235.93 401.475 1252.27 392.248 1263.19C383.021 1274.1 366.689 1275.48 355.77 1266.25Z" fill="white"/>
<path d="M25.8093 907.35C11.5553 900.318 5.69989 883.063 12.731 868.809C19.7621 854.555 37.0172 848.7 51.2713 855.731C65.5254 862.762 71.3807 880.017 64.3496 894.271C57.3185 908.525 40.0634 914.381 25.8093 907.35Z" fill="white"/>
<path d="M264.288 716.638C257.502 713.291 254.714 705.075 258.061 698.288C261.409 691.502 269.625 688.714 276.411 692.062C283.198 695.409 285.986 703.625 282.638 710.411C279.29 717.198 271.075 719.986 264.288 716.638Z" fill="white"/>
<path d="M101.277 628.069C87.8693 616.739 86.1856 596.684 97.5162 583.277C108.847 569.869 128.901 568.185 142.309 579.516C155.716 590.847 157.4 610.901 146.07 624.309C134.739 637.716 114.685 639.4 101.277 628.069Z" fill="white"/>
<circle cx="716.623" cy="574.615" r="25.9905" transform="rotate(125.916 716.623 574.615)" fill="white"/>
<circle cx="262.295" cy="528.295" r="25.9905" transform="rotate(125.916 262.295 528.295)" fill="white"/>
<circle cx="854.854" cy="496.678" r="16.7681" transform="rotate(125.916 854.854 496.678)" fill="white"/>
<circle cx="675.515" cy="704.264" r="16.7681" transform="rotate(125.916 675.515 704.264)" fill="white"/>
<circle cx="932.456" cy="576.712" r="25" transform="rotate(-30.7185 932.456 576.712)" fill="white"/>
<circle cx="1163.04" cy="676.997" r="31" transform="rotate(-157.347 1163.04 676.997)" fill="white"/>
<circle cx="1063.12" cy="542.114" r="30" transform="rotate(138.985 1063.12 542.114)" fill="white"/>
<circle cx="974.817" cy="696.943" r="20" transform="rotate(-30.7185 974.817 696.943)" fill="white"/>
<circle cx="26.7471" cy="26.7471" r="26.7471" transform="matrix(-0.40541 0.914135 0.914135 0.40541 1197.69 162)" fill="white"/>
<circle cx="18.2845" cy="18.2845" r="18.2845" transform="matrix(-0.40541 0.914135 0.914135 0.40541 1288.99 46.1667)" fill="white"/>
<circle cx="33.1664" cy="33.1664" r="33.1664" transform="matrix(0.742068 0.670325 0.670325 -0.742068 1339.66 430.485)" fill="white"/>
<circle cx="32.0965" cy="32.0965" r="32.0965" transform="matrix(-0.794236 -0.607609 -0.607609 0.794236 1279.35 388.363)" fill="white"/>
<circle cx="21.3977" cy="21.3977" r="21.3977" transform="matrix(0.898011 -0.439972 -0.439972 -0.898011 1374.04 254.251)" fill="white"/>
<circle cx="21.3977" cy="21.3977" r="21.3977" transform="matrix(0.941953 -0.335745 -0.335745 -0.941953 1256.86 583.94)" fill="white"/>
</svg>
