<svg width="603" height="116" viewBox="0 0 603 116" fill="none" xmlns="http://www.w3.org/2000/svg">
<rect width="603" height="116" rx="20" fill="#3F3CD6"/>
<path d="M43.2188 49V21.0703H46.832V33.1797H62.75V21.0703H66.3633V49H62.75V36.1094H46.832V49H43.2188ZM71.6562 42.8086C71.6562 38.6029 74.4297 36.5 79.9766 36.5C81.7604 36.5 83.5443 36.6302 85.3281 36.8906V34.957C85.3281 32.6003 83.4857 31.4219 79.8008 31.4219C77.6914 31.4219 75.5299 31.7474 73.3164 32.3984V29.4688C75.5299 28.8177 77.6914 28.4922 79.8008 28.4922C85.8945 28.4922 88.9414 30.6146 88.9414 34.8594V49H86.9102L85.6602 46.9688C83.6159 48.3229 81.3893 49 78.9805 49C74.0977 49 71.6562 46.9362 71.6562 42.8086ZM79.9766 39.4297C76.8385 39.4297 75.2695 40.5365 75.2695 42.75C75.2695 44.9635 76.5065 46.0703 78.9805 46.0703C81.4805 46.0703 83.5964 45.4062 85.3281 44.0781V39.8203C83.5443 39.5599 81.7604 39.4297 79.9766 39.4297ZM92.3789 28.4922H96.3047L102.105 44.5078L108.102 28.4922H111.93L103.414 49.6055C101.904 53.3294 99.638 55.6536 96.6172 56.5781L95.2305 54.0195C97.5221 53.0169 99.1888 51.3828 100.23 49.1172L92.3789 28.4922ZM133.258 28.4922V49H129.645V40.9141C127.743 42.3984 125.471 43.1406 122.828 43.1406C117.503 43.1406 114.84 40.4648 114.84 35.1133V28.4922H118.453V35.1719C118.453 38.4792 120.074 40.1328 123.316 40.1328C125.908 40.1328 128.017 39.2669 129.645 37.5352V28.4922H133.258ZM139.117 49V28.4922H142.73V37.0859H153.57V28.4922H157.184V49H153.57V40.0156H142.73V49H139.117ZM162.086 38.7461C162.086 31.7799 165.471 28.2969 172.242 28.2969C179.013 28.2969 182.398 31.7799 182.398 38.7461C182.398 45.7122 179.013 49.1953 172.242 49.1953C165.497 49.1953 162.112 45.7122 162.086 38.7461ZM165.699 38.668C165.699 43.7331 167.88 46.2656 172.242 46.2656C176.604 46.2656 178.785 43.7331 178.785 38.668C178.785 33.707 176.604 31.2266 172.242 31.2266C167.88 31.2266 165.699 33.707 165.699 38.668ZM196.07 37.2812V40.2109H186.305V37.2812H196.07ZM200.953 49V28.4922H219.02V49H215.406V31.4219H204.566V49H200.953ZM228.512 44.8203C229.931 45.5234 231.513 45.875 233.258 45.875C237.906 45.875 240.23 43.3164 240.23 38.1992C240.23 33.7331 237.919 31.5 233.297 31.5C231.474 31.5 229.879 31.6562 228.512 31.9688V44.8203ZM224.898 29.332C227.62 28.7721 230.432 28.4922 233.336 28.4922C240.302 28.4922 243.785 31.7409 243.785 38.2383C243.785 45.4128 240.283 49 233.277 49C231.637 49 230.048 48.6745 228.512 48.0234V56.4219H224.898V29.332ZM247.711 38.7461C247.711 31.7799 251.096 28.2969 257.867 28.2969C264.638 28.2969 268.023 31.7799 268.023 38.7461C268.023 45.7122 264.638 49.1953 257.867 49.1953C251.122 49.1953 247.737 45.7122 247.711 38.7461ZM251.324 38.668C251.324 43.7331 253.505 46.2656 257.867 46.2656C262.229 46.2656 264.41 43.7331 264.41 38.668C264.41 33.707 262.229 31.2266 257.867 31.2266C253.505 31.2266 251.324 33.707 251.324 38.668ZM287.555 49V33.1406L276.52 49H272.906V28.4922H276.324V44.3516L287.359 28.4922H290.973V49H287.555ZM295.875 29.4688C298.479 28.6875 300.758 28.2969 302.711 28.2969C308.115 28.2969 310.816 30.1979 310.816 34C310.816 36.0052 309.918 37.5221 308.121 38.5508C309.918 39.5273 310.816 40.9922 310.816 42.9453C310.816 47.112 308.115 49.1953 302.711 49.1953C300.758 49.1953 298.479 48.8047 295.875 48.0234V44.8984C298.479 45.8099 300.758 46.2656 302.711 46.2656C305.706 46.2656 307.203 45.1589 307.203 42.9453C307.203 40.9922 306.214 40.0156 304.234 40.0156H297.828V37.0859H304.176C306.194 37.0859 307.203 36.0573 307.203 34C307.203 32.151 305.706 31.2266 302.711 31.2266C300.758 31.2266 298.479 31.6823 295.875 32.5938V29.4688ZM326.617 46.0703C328.648 46.0703 329.664 45.0286 329.664 42.9453C329.664 40.9922 328.082 40.0156 324.918 40.0156H323.355V37.6523C327.392 37.1966 329.41 35.8359 329.41 33.5703C329.41 32.138 328.577 31.4219 326.91 31.4219H319.332V46.0703H326.617ZM315.719 49V28.4922H327.242C331.253 28.4922 333.258 30.2044 333.258 33.6289C333.258 35.7513 331.982 37.3268 329.43 38.3555C332.216 39.0456 333.609 40.556 333.609 42.8867C333.609 46.9622 331.35 49 326.832 49H315.719ZM337.516 38.7461C337.516 31.7799 340.901 28.2969 347.672 28.2969C354.443 28.2969 357.828 31.7799 357.828 38.7461C357.828 45.7122 354.443 49.1953 347.672 49.1953C340.927 49.1953 337.542 45.7122 337.516 38.7461ZM341.129 38.668C341.129 43.7331 343.31 46.2656 347.672 46.2656C352.034 46.2656 354.215 43.7331 354.215 38.668C354.215 33.707 352.034 31.2266 347.672 31.2266C343.31 31.2266 341.129 33.707 341.129 38.668ZM368.648 46.0703H378.98V31.4219H371.754C371.754 38.7005 370.719 43.5833 368.648 46.0703ZM359.781 56.4219V46.0703H363.375C366.552 46.0703 368.141 41.1875 368.141 31.4219V28.4922H382.594V46.0703H386.207V56.4219H382.594V49H363.375V56.4219H359.781ZM406.031 48.4141C404.339 48.8047 402.516 49 400.562 49C393.271 49 389.625 45.4518 389.625 38.3555C389.625 31.7799 393.271 28.4922 400.562 28.4922C402.516 28.4922 404.339 28.6875 406.031 29.0781V32.0078C404.339 31.6172 402.451 31.4219 400.367 31.4219C395.615 31.4219 393.238 33.7331 393.238 38.3555C393.238 43.4987 395.615 46.0703 400.367 46.0703C402.451 46.0703 404.339 45.875 406.031 45.4844V48.4141ZM425.777 28.4922V31.4219H418.551V49H414.938V31.4219H407.711V28.4922H425.777ZM439.625 46.0703C441.656 46.0703 442.672 45.0286 442.672 42.9453C442.672 40.9922 441.09 40.0156 437.926 40.0156H436.363V37.6523C440.4 37.1966 442.418 35.8359 442.418 33.5703C442.418 32.138 441.585 31.4219 439.918 31.4219H432.34V46.0703H439.625ZM428.727 49V28.4922H440.25C444.26 28.4922 446.266 30.2044 446.266 33.6289C446.266 35.7513 444.99 37.3268 442.438 38.3555C445.224 39.0456 446.617 40.556 446.617 42.8867C446.617 46.9622 444.358 49 439.84 49H428.727ZM459.957 28.4922C465.79 28.4922 468.707 31.3763 468.707 37.1445C468.707 37.9648 468.648 38.8438 468.531 39.7812H454.137C454.137 43.974 456.585 46.0703 461.48 46.0703C463.811 46.0703 465.882 45.8099 467.691 45.2891V48.2188C465.882 48.7396 463.681 49 461.09 49C454.046 49 450.523 45.5039 450.523 38.5117C450.523 31.832 453.668 28.4922 459.957 28.4922ZM454.137 36.7734H465.23C465.152 33.1797 463.395 31.3828 459.957 31.3828C456.311 31.3828 454.371 33.1797 454.137 36.7734ZM473.57 49V28.4922H477.184V37.0859H488.023V28.4922H491.637V49H488.023V40.0156H477.184V49H473.57ZM497.516 49V28.4922H501.129V37.0859H511.969V28.4922H515.582V49H511.969V40.0156H501.129V49H497.516ZM520.484 42.8086C520.484 38.6029 523.258 36.5 528.805 36.5C530.589 36.5 532.372 36.6302 534.156 36.8906V34.957C534.156 32.6003 532.314 31.4219 528.629 31.4219C526.52 31.4219 524.358 31.7474 522.145 32.3984V29.4688C524.358 28.8177 526.52 28.4922 528.629 28.4922C534.723 28.4922 537.77 30.6146 537.77 34.8594V49H535.738L534.488 46.9688C532.444 48.3229 530.217 49 527.809 49C522.926 49 520.484 46.9362 520.484 42.8086ZM528.805 39.4297C525.667 39.4297 524.098 40.5365 524.098 42.75C524.098 44.9635 525.335 46.0703 527.809 46.0703C530.309 46.0703 532.424 45.4062 534.156 44.0781V39.8203C532.372 39.5599 530.589 39.4297 528.805 39.4297ZM556.539 49V31.4805H549.547C547.75 31.4805 546.852 32.2487 546.852 33.7852C546.852 35.6081 548.935 36.9427 553.102 37.7891V40.3477L545.777 49H541.207L549.137 39.8398C545.048 38.5768 543.004 36.5716 543.004 33.8242C543.004 30.2695 545.204 28.4922 549.605 28.4922H560.152V49H556.539ZM58.7461 93.0234C56.3372 93.8047 53.7331 94.1953 50.9336 94.1953C41.168 94.1953 36.2852 89.3451 36.2852 79.6445C36.2852 70.4648 41.168 65.875 50.9336 65.875C53.7331 65.875 56.3372 66.2656 58.7461 67.0469V70.1719C56.3372 69.2604 53.8633 68.8047 51.3242 68.8047C43.707 68.8047 39.8984 72.418 39.8984 79.6445C39.8984 87.3919 43.707 91.2656 51.3242 91.2656C53.8633 91.2656 56.3372 90.8099 58.7461 89.8984V93.0234ZM79.4688 73.4922V76.4219H72.2422V94H68.6289V76.4219H61.4023V73.4922H79.4688ZM79.9766 73.4922H83.9023L89.7031 89.5078L95.6992 73.4922H99.5273L91.0117 94.6055C89.5013 98.3294 87.2357 100.654 84.2148 101.578L82.8281 99.0195C85.1198 98.0169 86.7865 96.3828 87.8281 94.1172L79.9766 73.4922ZM108.863 91.0703H119.195V76.4219H111.969C111.969 83.7005 110.934 88.5833 108.863 91.0703ZM99.9961 101.422V91.0703H103.59C106.767 91.0703 108.355 86.1875 108.355 76.4219V73.4922H122.809V91.0703H126.422V101.422H122.809V94H103.59V101.422H99.9961ZM139.273 73.4922C145.107 73.4922 148.023 76.3763 148.023 82.1445C148.023 82.9648 147.965 83.8438 147.848 84.7812H133.453C133.453 88.974 135.901 91.0703 140.797 91.0703C143.128 91.0703 145.198 90.8099 147.008 90.2891V93.2188C145.198 93.7396 142.997 94 140.406 94C133.362 94 129.84 90.5039 129.84 83.5117C129.84 76.832 132.984 73.4922 139.273 73.4922ZM133.453 81.7734H144.547C144.469 78.1797 142.711 76.3828 139.273 76.3828C135.628 76.3828 133.688 78.1797 133.453 81.7734ZM152.887 94V73.4922H156.5V82.0859H167.34V73.4922H170.953V94H167.34V85.0156H156.5V94H152.887ZM194.762 73.4922V94H191.148V85.9141C189.247 87.3984 186.975 88.1406 184.332 88.1406C179.007 88.1406 176.344 85.4648 176.344 80.1133V73.4922H179.957V80.1719C179.957 83.4792 181.578 85.1328 184.82 85.1328C187.411 85.1328 189.521 84.2669 191.148 82.5352V73.4922H194.762ZM209.078 73.4922C214.911 73.4922 217.828 76.3763 217.828 82.1445C217.828 82.9648 217.77 83.8438 217.652 84.7812H203.258C203.258 88.974 205.706 91.0703 210.602 91.0703C212.932 91.0703 215.003 90.8099 216.812 90.2891V93.2188C215.003 93.7396 212.802 94 210.211 94C203.167 94 199.645 90.5039 199.645 83.5117C199.645 76.832 202.789 73.4922 209.078 73.4922ZM203.258 81.7734H214.352C214.273 78.1797 212.516 76.3828 209.078 76.3828C205.432 76.3828 203.492 78.1797 203.258 81.7734ZM238.121 93.4141C236.428 93.8047 234.605 94 232.652 94C225.361 94 221.715 90.4518 221.715 83.3555C221.715 76.7799 225.361 73.4922 232.652 73.4922C234.605 73.4922 236.428 73.6875 238.121 74.0781V77.0078C236.428 76.6172 234.54 76.4219 232.457 76.4219C227.704 76.4219 225.328 78.7331 225.328 83.3555C225.328 88.4987 227.704 91.0703 232.457 91.0703C234.54 91.0703 236.428 90.875 238.121 90.4844V93.4141ZM256.695 94L253.824 89.1953C251.897 85.9792 250.035 84.3711 248.238 84.3711V81.9688C250.322 81.9688 251.871 80.556 252.887 77.7305C253.915 74.9049 255.654 73.4922 258.102 73.4922H260.191V76.6172H258.648C257.242 76.6172 256.207 77.5742 255.543 79.4883C254.879 81.3893 253.733 82.6589 252.105 83.2969C253.642 83.5703 255.484 85.4193 257.633 88.8438L260.875 94H256.695ZM246.344 73.4922V94H242.73V73.4922H246.344ZM263.316 87.8086C263.316 83.6029 266.09 81.5 271.637 81.5C273.421 81.5 275.204 81.6302 276.988 81.8906V79.957C276.988 77.6003 275.146 76.4219 271.461 76.4219C269.352 76.4219 267.19 76.7474 264.977 77.3984V74.4688C267.19 73.8177 269.352 73.4922 271.461 73.4922C277.555 73.4922 280.602 75.6146 280.602 79.8594V94H278.57L277.32 91.9688C275.276 93.3229 273.049 94 270.641 94C265.758 94 263.316 91.9362 263.316 87.8086ZM271.637 84.4297C268.499 84.4297 266.93 85.5365 266.93 87.75C266.93 89.9635 268.167 91.0703 270.641 91.0703C273.141 91.0703 275.257 90.4062 276.988 89.0781V84.8203C275.204 84.5599 273.421 84.4297 271.637 84.4297ZM299.371 94V76.4805H292.379C290.582 76.4805 289.684 77.2487 289.684 78.7852C289.684 80.6081 291.767 81.9427 295.934 82.7891V85.3477L288.609 94H284.039L291.969 84.8398C287.88 83.5768 285.836 81.5716 285.836 78.8242C285.836 75.2695 288.036 73.4922 292.438 73.4922H302.984V94H299.371ZM315.699 91.0703C318.785 91.0703 320.328 89.3125 320.328 85.7969V73.4922H335.953V94H332.34V76.4219H323.941V85.7969C323.941 91.2656 321.194 94 315.699 94V91.0703ZM340.855 87.8086C340.855 83.6029 343.629 81.5 349.176 81.5C350.96 81.5 352.743 81.6302 354.527 81.8906V79.957C354.527 77.6003 352.685 76.4219 349 76.4219C346.891 76.4219 344.729 76.7474 342.516 77.3984V74.4688C344.729 73.8177 346.891 73.4922 349 73.4922C355.094 73.4922 358.141 75.6146 358.141 79.8594V94H356.109L354.859 91.9688C352.815 93.3229 350.589 94 348.18 94C343.297 94 340.855 91.9362 340.855 87.8086ZM349.176 84.4297C346.038 84.4297 344.469 85.5365 344.469 87.75C344.469 89.9635 345.706 91.0703 348.18 91.0703C350.68 91.0703 352.796 90.4062 354.527 89.0781V84.8203C352.743 84.5599 350.96 84.4297 349.176 84.4297ZM383.863 83.8438C383.863 90.7448 380.491 94.1953 373.746 94.1953C366.936 94.1953 363.531 90.7448 363.531 83.8438V77.4961C363.531 69.8789 367.073 66.0703 374.156 66.0703C377.958 66.0703 380.973 65.3607 383.199 63.9414V67.125C381.207 68.375 378.173 69 374.098 69C369.527 69 367.242 71.7669 367.242 77.3008C368.922 74.7617 371.155 73.4922 373.941 73.4922C380.556 73.4922 383.863 76.7995 383.863 83.4141V83.8438ZM373.746 91.2656C378.069 91.2656 380.23 88.7917 380.23 83.8438C380.23 78.974 378.134 76.5391 373.941 76.5391C369.475 76.5391 367.242 78.974 367.242 83.8438C367.242 88.7917 369.41 91.2656 373.746 91.2656ZM388.004 83.7461C388.004 76.7799 391.389 73.2969 398.16 73.2969C404.931 73.2969 408.316 76.7799 408.316 83.7461C408.316 90.7122 404.931 94.1953 398.16 94.1953C391.415 94.1953 388.03 90.7122 388.004 83.7461ZM391.617 83.668C391.617 88.7331 393.798 91.2656 398.16 91.2656C402.522 91.2656 404.703 88.7331 404.703 83.668C404.703 78.707 402.522 76.2266 398.16 76.2266C393.798 76.2266 391.617 78.707 391.617 83.668ZM416.812 89.8203C418.232 90.5234 419.814 90.875 421.559 90.875C426.207 90.875 428.531 88.3164 428.531 83.1992C428.531 78.7331 426.22 76.5 421.598 76.5C419.775 76.5 418.18 76.6562 416.812 76.9688V89.8203ZM413.199 74.332C415.921 73.7721 418.733 73.4922 421.637 73.4922C428.603 73.4922 432.086 76.7409 432.086 83.2383C432.086 90.4128 428.583 94 421.578 94C419.938 94 418.349 93.6745 416.812 93.0234V101.422H413.199V74.332ZM436.012 87.8086C436.012 83.6029 438.785 81.5 444.332 81.5C446.116 81.5 447.9 81.6302 449.684 81.8906V79.957C449.684 77.6003 447.841 76.4219 444.156 76.4219C442.047 76.4219 439.885 76.7474 437.672 77.3984V74.4688C439.885 73.8177 442.047 73.4922 444.156 73.4922C450.25 73.4922 453.297 75.6146 453.297 79.8594V94H451.266L450.016 91.9688C447.971 93.3229 445.745 94 443.336 94C438.453 94 436.012 91.9362 436.012 87.8086ZM444.332 84.4297C441.194 84.4297 439.625 85.5365 439.625 87.75C439.625 89.9635 440.862 91.0703 443.336 91.0703C445.836 91.0703 447.952 90.4062 449.684 89.0781V84.8203C447.9 84.5599 446.116 84.4297 444.332 84.4297ZM474.312 73.4922V76.4219H467.086V94H463.473V76.4219H456.246V73.4922H474.312ZM476.285 83.7461C476.285 76.7799 479.671 73.2969 486.441 73.2969C493.212 73.2969 496.598 76.7799 496.598 83.7461C496.598 90.7122 493.212 94.1953 486.441 94.1953C479.697 94.1953 476.311 90.7122 476.285 83.7461ZM479.898 83.668C479.898 88.7331 482.079 91.2656 486.441 91.2656C490.803 91.2656 492.984 88.7331 492.984 83.668C492.984 78.707 490.803 76.2266 486.441 76.2266C482.079 76.2266 479.898 78.707 479.898 83.668ZM505.094 89.8203C506.513 90.5234 508.095 90.875 509.84 90.875C514.488 90.875 516.812 88.3164 516.812 83.1992C516.812 78.7331 514.501 76.5 509.879 76.5C508.056 76.5 506.461 76.6562 505.094 76.9688V89.8203ZM501.48 74.332C504.202 73.7721 507.014 73.4922 509.918 73.4922C516.884 73.4922 520.367 76.7409 520.367 83.2383C520.367 90.4128 516.865 94 509.859 94C508.219 94 506.63 93.6745 505.094 93.0234V101.422H501.48V74.332ZM539.918 94V78.1406L528.883 94H525.27V73.4922H528.688V89.3516L539.723 73.4922H543.336V94H539.918ZM562.105 94V76.4805H555.113C553.316 76.4805 552.418 77.2487 552.418 78.7852C552.418 80.6081 554.501 81.9427 558.668 82.7891V85.3477L551.344 94H546.773L554.703 84.8398C550.615 83.5768 548.57 81.5716 548.57 78.8242C548.57 75.2695 550.771 73.4922 555.172 73.4922H565.719V94H562.105Z" fill="white"/>
</svg>
