<svg width="1200" height="274" viewBox="0 0 1200 274" fill="none" xmlns="http://www.w3.org/2000/svg">
<path d="M571.023 165.239L724.58 230.231" stroke="white" stroke-width="2"/>
<path d="M437.497 250.353L724.579 230.232" stroke="white" stroke-width="2"/>
<path d="M449.86 96.1716L313.531 48.0789" stroke="white" stroke-width="2"/>
<path d="M854.7 198.54L761.025 56.854" stroke="white" stroke-width="2"/>
<path d="M896.458 108.051L761.143 60.9521" stroke="white" stroke-width="2"/>
<path d="M1155.81 117.492L1007.23 19.5353" stroke="white" stroke-width="2"/>
<path d="M1155.81 117.492L1020.23 199.593" stroke="white" stroke-width="2"/>
<path d="M896.428 107.025L1007.23 19.5357" stroke="white" stroke-width="2"/>
<path d="M854.7 198.54L1020.23 199.594" stroke="white" stroke-width="2"/>
<path d="M1020.23 199.593L1007.23 19.5359" stroke="white" stroke-width="2"/>
<path d="M1020.23 199.593L896.427 107.026" stroke="white" stroke-width="2"/>
<path d="M854.7 198.54L896.457 108.05" stroke="white" stroke-width="2"/>
<path d="M724.579 230.232L854.699 198.54" stroke="white" stroke-width="2"/>
<path d="M607.621 31.8436L761.142 60.9509" stroke="white" stroke-width="2"/>
<path d="M571.023 165.239L761.142 60.9512" stroke="white" stroke-width="2"/>
<path d="M724.579 230.232L761.141 60.9521" stroke="white" stroke-width="2"/>
<path d="M434.89 247.719L363.898 171.485" stroke="white" stroke-width="2"/>
<path d="M363.897 171.488L449.512 97.0015" stroke="white" stroke-width="2"/>
<path d="M571.405 165.62L449.511 96.9992" stroke="white" stroke-width="2"/>
<path d="M437.621 249.653L571.406 165.621" stroke="white" stroke-width="2"/>
<path d="M571.405 165.62L608.09 31.5578" stroke="white" stroke-width="2"/>
<path d="M437.621 249.653L449.512 97.0001" stroke="white" stroke-width="2"/>
<path d="M449.511 96.9995L608.09 31.5581" stroke="white" stroke-width="2"/>
<path d="M315.824 51.5929L358.909 170.017" stroke="white" stroke-width="2"/>
<path d="M358.909 170.017L231.314 209.422" stroke="white" stroke-width="2"/>
<path d="M129.036 74.271L231.314 209.421" stroke="white" stroke-width="2"/>
<path d="M313.714 48.1321L129.037 74.2713" stroke="white" stroke-width="2"/>
<path d="M129.036 74.271L27.9389 202.998" stroke="white" stroke-width="2"/>
<path d="M313.714 48.1321L231.314 209.421" stroke="white" stroke-width="2"/>
<path d="M231.314 209.423L27.9388 203.001" stroke="white" stroke-width="2"/>
<ellipse cx="29.637" cy="29.0052" rx="29.637" ry="29.0052" transform="matrix(-0.465485 0.885056 -0.868871 -0.495039 763.491 218.435)" fill="white"/>
<ellipse cx="19.8916" cy="19.4675" rx="19.8916" ry="19.4675" transform="matrix(-0.465485 0.885056 -0.868871 -0.495039 787.522 54.589)" fill="white"/>
<ellipse cx="25.4625" cy="25.0911" rx="25.4625" ry="25.0911" transform="matrix(0.547019 -0.83712 0.816197 0.577774 415.105 103.818)" fill="white"/>
<ellipse cx="20.4915" cy="20.1926" rx="20.4915" ry="20.1926" transform="matrix(0.547019 -0.83712 0.816197 0.577774 285.764 54.0996)" fill="white"/>
<ellipse cx="17.2935" cy="17.0413" rx="17.2935" ry="17.0413" transform="matrix(0.547019 -0.83712 0.816197 0.577774 209.974 214.312)" fill="white"/>
<ellipse cx="20.9239" cy="20.3833" rx="20.9239" ry="20.3833" transform="matrix(0.402036 -0.915624 0.903046 0.429543 870.12 118.925)" fill="white"/>
<path d="M860.36 185.469C867.137 188.693 870.12 197.025 867.023 204.079C863.926 211.132 855.921 214.237 849.144 211.014C842.366 207.79 839.383 199.458 842.48 192.404C845.578 185.351 853.583 182.246 860.36 185.469Z" fill="white"/>
<path d="M1012.48 6.41577C1019.26 9.63946 1022.24 17.9711 1019.15 25.025C1016.05 32.079 1008.04 35.184 1001.27 31.9603C994.489 28.7366 991.506 20.405 994.603 13.351C997.7 6.2971 1005.71 3.19208 1012.48 6.41577Z" fill="white"/>
<path d="M1175.51 92.2065C1189.03 103.407 1191.28 123.901 1180.51 137.979C1169.75 152.058 1150.06 154.391 1136.54 143.19C1123.01 131.989 1120.77 111.496 1131.53 97.417C1142.29 83.3383 1161.98 81.0055 1175.51 92.2065Z" fill="white"/>
<ellipse cx="26.3112" cy="25.9274" rx="26.3112" ry="25.9274" transform="matrix(0.547019 -0.83712 0.816197 0.577774 535.852 172.667)" fill="white"/>
<ellipse cx="26.3112" cy="25.9274" rx="26.3112" ry="25.9274" transform="matrix(0.547019 -0.83712 0.816197 0.577774 984.375 206.345)" fill="white"/>
<ellipse cx="16.975" cy="16.7274" rx="16.975" ry="16.7274" transform="matrix(0.547019 -0.83712 0.816197 0.577774 414.682 254.199)" fill="white"/>
<ellipse cx="16.975" cy="16.7274" rx="16.975" ry="16.7274" transform="matrix(0.547019 -0.83712 0.816197 0.577774 585.153 36.1042)" fill="white"/>
<ellipse cx="24.91" cy="25.3374" rx="24.91" ry="25.3374" transform="matrix(-0.834276 0.551347 -0.520791 -0.853684 392.886 177.913)" fill="white"/>
<ellipse cx="30.6875" cy="31.6146" rx="30.6875" ry="31.6146" transform="matrix(0.92891 0.370306 -0.345351 0.938474 111.45 33.2382)" fill="white"/>
<ellipse cx="21.1856" cy="21.8184" rx="21.1856" ry="21.8184" transform="matrix(-0.926525 0.376233 0.350995 0.936377 39.4053 172.447)" fill="white"/>
</svg>
