<svg width="1221" height="322" viewBox="0 0 1221 322" fill="none" xmlns="http://www.w3.org/2000/svg">
<ellipse cx="21.6161" cy="21.3268" rx="21.6161" ry="21.3268" transform="matrix(-0.589171 0.808008 -0.777188 -0.629268 954.68 286.264)" fill="white"/>
<ellipse cx="21.0099" cy="20.5339" rx="21.0099" ry="20.5339" transform="matrix(0.510251 -0.860025 0.835068 0.550147 429.39 253.665)" fill="white"/>
<path d="M669.63 114.46L505.527 71.513" stroke="white" stroke-width="2"/>
<path d="M771.23 26.8623L505.527 71.5116" stroke="white" stroke-width="2"/>
<path d="M785.331 231.177L925.257 290.871" stroke="white" stroke-width="2"/>
<path d="M367.451 96.7859L457.264 252.959" stroke="white" stroke-width="2"/>
<path d="M327.884 237.744L457.38 248.608" stroke="white" stroke-width="2"/>
<path d="M47.4746 163.444L197.324 276.775" stroke="white" stroke-width="2"/>
<path d="M47.4746 163.444L194.209 85.0876" stroke="white" stroke-width="2"/>
<path d="M327.884 237.744L197.323 276.773" stroke="white" stroke-width="2"/>
<path d="M367.451 96.7859L194.21 85.0857" stroke="white" stroke-width="2"/>
<path d="M194.21 85.0852L197.324 276.775" stroke="white" stroke-width="2"/>
<path d="M194.21 85.0852L327.884 237.743" stroke="white" stroke-width="2"/>
<path d="M367.451 96.7859L327.885 237.744" stroke="white" stroke-width="2"/>
<path d="M505.528 71.5127L367.451 96.7856" stroke="white" stroke-width="2"/>
<path d="M595.74 231.254L457.381 248.608" stroke="white" stroke-width="2"/>
<path d="M669.63 114.46L457.38 248.608" stroke="white" stroke-width="2"/>
<path d="M505.528 71.5127L457.381 248.608" stroke="white" stroke-width="2"/>
<path d="M771.23 26.8623L879.721 156.842" stroke="white" stroke-width="2"/>
<path d="M879.72 156.841L785.744 230.32" stroke="white" stroke-width="2"/>
<path d="M669.63 111.215L785.744 230.322" stroke="white" stroke-width="2"/>
<path d="M771.23 26.8623L669.63 114.459" stroke="white" stroke-width="2"/>
<path d="M669.63 111.215L595.739 231.255" stroke="white" stroke-width="2"/>
<path d="M771.23 26.8623L785.744 230.321" stroke="white" stroke-width="2"/>
<path d="M785.744 230.321L595.739 231.254" stroke="white" stroke-width="2"/>
<path d="M923.061 287L884.858 158.719" stroke="white" stroke-width="2"/>
<path d="M884.858 158.717L1020.74 125.107" stroke="white" stroke-width="2"/>
<path d="M1119.94 274.905L1020.74 125.11" stroke="white" stroke-width="2"/>
<path d="M925.07 290.802L1119.94 274.903" stroke="white" stroke-width="2"/>
<path d="M1119.94 274.905L1193.02 33.3517" stroke="white" stroke-width="2"/>
<path d="M925.07 290.802L1020.74 125.108" stroke="white" stroke-width="2"/>
<path d="M1020.74 125.108L1193.03 33.3513" stroke="white" stroke-width="2"/>
<ellipse cx="31.3032" cy="30.594" rx="31.3032" ry="30.594" transform="matrix(0.510251 -0.860025 0.835068 0.550147 464.101 81.5288)" fill="white"/>
<ellipse cx="26.8599" cy="26.5003" rx="26.8599" ry="26.5003" transform="matrix(-0.589171 0.808008 -0.777188 -0.629268 822.164 225.294)" fill="white"/>
<ellipse cx="18.2426" cy="17.9984" rx="18.2426" ry="17.9984" transform="matrix(-0.589171 0.808008 -0.777188 -0.629268 1043.37 121.289)" fill="white"/>
<path d="M360.762 110.278C353.854 106.428 351.217 97.4059 354.871 90.127C358.525 82.848 367.086 80.0686 373.994 83.9189C380.902 87.7693 383.539 96.7914 379.885 104.07C376.231 111.349 367.67 114.129 360.762 110.278Z" fill="white"/>
<path d="M25.3786 188.984C11.8699 176.246 10.718 154.381 22.8057 140.146C34.8935 125.911 55.6436 124.697 69.1523 137.435C82.6611 150.172 83.813 172.038 71.7252 186.273C59.6374 200.508 38.8873 201.722 25.3786 188.984Z" fill="white"/>
<ellipse cx="27.7552" cy="27.3837" rx="27.7552" ry="27.3837" transform="matrix(-0.589171 0.808008 -0.777188 -0.629268 707.954 106.746)" fill="white"/>
<ellipse cx="27.7552" cy="27.3837" rx="27.7552" ry="27.3837" transform="matrix(-0.589171 0.808008 -0.777188 -0.629268 232.139 80.2207)" fill="white"/>
<ellipse cx="27.7552" cy="27.3837" rx="27.7552" ry="27.3837" transform="matrix(-0.589171 0.808008 -0.777188 -0.629268 233.82 272.207)" fill="white"/>
<ellipse cx="17.9066" cy="17.6669" rx="17.9066" ry="17.6669" transform="matrix(-0.589171 0.808008 -0.777188 -0.629268 795.161 23.1431)" fill="white"/>
<ellipse cx="17.9066" cy="17.6669" rx="17.9066" ry="17.6669" transform="matrix(-0.589171 0.808008 -0.777188 -0.629268 619.669 227.535)" fill="white"/>
<ellipse cx="26.1512" cy="26.8825" rx="26.1512" ry="26.8825" transform="matrix(0.862611 -0.505867 0.466999 0.884258 849.745 148.176)" fill="white"/>
<ellipse cx="32.3096" cy="33.4486" rx="32.3096" ry="33.4486" transform="matrix(-0.9032 -0.42922 0.393451 -0.919345 1135.96 319.523)" fill="white"/>
<ellipse cx="22.2125" cy="23.1735" rx="22.2125" ry="23.1735" transform="matrix(0.946105 -0.32386 -0.294592 -0.955623 1178.97 62.8306)" fill="white"/>
<ellipse cx="22.1206" cy="21.4787" rx="22.1206" ry="21.4787" transform="matrix(-0.448631 0.893717 -0.873469 -0.486879 357.544 229.46)" fill="white"/>
</svg>
