<svg width="360" height="400" viewBox="0 0 360 400" fill="none" xmlns="http://www.w3.org/2000/svg">
<rect width="360" height="400" rx="40" fill="#1533CE" fill-opacity="0.78"/>
<path d="M41.6748 89V61H66.4348V89H61.3148V64.12L62.5148 65.4H45.5948L46.7948 64.12V89H41.6748ZM83.2902 89.28C81.1035 89.28 79.1568 88.8133 77.4502 87.88C75.7435 86.92 74.3968 85.6133 73.4102 83.96C72.4235 82.3067 71.9302 80.4267 71.9302 78.32C71.9302 76.1867 72.4235 74.3067 73.4102 72.68C74.3968 71.0267 75.7435 69.7333 77.4502 68.8C79.1568 67.8667 81.1035 67.4 83.2902 67.4C85.5035 67.4 87.4635 67.8667 89.1702 68.8C90.9035 69.7333 92.2502 71.0133 93.2102 72.64C94.1968 74.2667 94.6902 76.16 94.6902 78.32C94.6902 80.4267 94.1968 82.3067 93.2102 83.96C92.2502 85.6133 90.9035 86.92 89.1702 87.88C87.4635 88.8133 85.5035 89.28 83.2902 89.28ZM83.2902 85C84.5168 85 85.6102 84.7333 86.5702 84.2C87.5302 83.6667 88.2768 82.8933 88.8102 81.88C89.3702 80.8667 89.6502 79.68 89.6502 78.32C89.6502 76.9333 89.3702 75.7467 88.8102 74.76C88.2768 73.7467 87.5302 72.9733 86.5702 72.44C85.6102 71.9067 84.5302 71.64 83.3302 71.64C82.1035 71.64 81.0102 71.9067 80.0502 72.44C79.1168 72.9733 78.3702 73.7467 77.8102 74.76C77.2502 75.7467 76.9702 76.9333 76.9702 78.32C76.9702 79.68 77.2502 80.8667 77.8102 81.88C78.3702 82.8933 79.1168 83.6667 80.0502 84.2C81.0102 84.7333 82.0902 85 83.2902 85ZM99.6295 89V67.64H120.11V89H115.15V70.72L116.31 71.88H103.47L104.63 70.72V89H99.6295ZM138.696 89.28C136.963 89.28 135.376 88.88 133.936 88.08C132.523 87.28 131.389 86.08 130.536 84.48C129.709 82.8533 129.296 80.8 129.296 78.32C129.296 75.8133 129.696 73.76 130.496 72.16C131.323 70.56 132.443 69.3733 133.856 68.6C135.269 67.8 136.883 67.4 138.696 67.4C140.803 67.4 142.656 67.8533 144.256 68.76C145.883 69.6667 147.163 70.9333 148.096 72.56C149.056 74.1867 149.536 76.1067 149.536 78.32C149.536 80.5333 149.056 82.4667 148.096 84.12C147.163 85.7467 145.883 87.0133 144.256 87.92C142.656 88.8267 140.803 89.28 138.696 89.28ZM126.856 96.76V67.64H131.616V72.68L131.456 78.36L131.856 84.04V96.76H126.856ZM138.136 85C139.336 85 140.403 84.7333 141.336 84.2C142.296 83.6667 143.056 82.8933 143.616 81.88C144.176 80.8667 144.456 79.68 144.456 78.32C144.456 76.9333 144.176 75.7467 143.616 74.76C143.056 73.7467 142.296 72.9733 141.336 72.44C140.403 71.9067 139.336 71.64 138.136 71.64C136.936 71.64 135.856 71.9067 134.896 72.44C133.936 72.9733 133.176 73.7467 132.616 74.76C132.056 75.7467 131.776 76.9333 131.776 78.32C131.776 79.68 132.056 80.8667 132.616 81.88C133.176 82.8933 133.936 83.6667 134.896 84.2C135.856 84.7333 136.936 85 138.136 85ZM164.032 89.28C161.846 89.28 159.899 88.8133 158.192 87.88C156.486 86.92 155.139 85.6133 154.152 83.96C153.166 82.3067 152.672 80.4267 152.672 78.32C152.672 76.1867 153.166 74.3067 154.152 72.68C155.139 71.0267 156.486 69.7333 158.192 68.8C159.899 67.8667 161.846 67.4 164.032 67.4C166.246 67.4 168.206 67.8667 169.912 68.8C171.646 69.7333 172.992 71.0133 173.952 72.64C174.939 74.2667 175.432 76.16 175.432 78.32C175.432 80.4267 174.939 82.3067 173.952 83.96C172.992 85.6133 171.646 86.92 169.912 87.88C168.206 88.8133 166.246 89.28 164.032 89.28ZM164.032 85C165.259 85 166.352 84.7333 167.312 84.2C168.272 83.6667 169.019 82.8933 169.552 81.88C170.112 80.8667 170.392 79.68 170.392 78.32C170.392 76.9333 170.112 75.7467 169.552 74.76C169.019 73.7467 168.272 72.9733 167.312 72.44C166.352 71.9067 165.272 71.64 164.072 71.64C162.846 71.64 161.752 71.9067 160.792 72.44C159.859 72.9733 159.112 73.7467 158.552 74.76C157.992 75.7467 157.712 76.9333 157.712 78.32C157.712 79.68 157.992 80.8667 158.552 81.88C159.112 82.8933 159.859 83.6667 160.792 84.2C161.752 84.7333 162.832 85 164.032 85ZM190.572 89.4C188.812 89.4 187.238 89.1333 185.852 88.6C184.465 88.0667 183.265 87.2533 182.252 86.16C181.265 85.04 180.505 83.6267 179.972 81.92C179.438 80.2133 179.172 78.1867 179.172 75.84C179.172 74.1333 179.318 72.5733 179.612 71.16C179.905 69.7467 180.345 68.48 180.932 67.36C181.518 66.2133 182.252 65.2 183.132 64.32C184.038 63.44 185.092 62.7067 186.292 62.12C187.492 61.5333 188.852 61.08 190.372 60.76L200.292 58.64L201.012 63.12L192.012 64.96C191.505 65.0667 190.892 65.2267 190.172 65.44C189.478 65.6267 188.758 65.92 188.012 66.32C187.292 66.6933 186.612 67.24 185.972 67.96C185.358 68.6533 184.852 69.56 184.452 70.68C184.078 71.7733 183.892 73.1467 183.892 74.8C183.892 75.3067 183.905 75.6933 183.932 75.96C183.985 76.2 184.025 76.4667 184.052 76.76C184.105 77.0267 184.132 77.4267 184.132 77.96L182.252 76C182.785 74.64 183.518 73.48 184.452 72.52C185.412 71.5333 186.518 70.7867 187.772 70.28C189.052 69.7467 190.438 69.48 191.932 69.48C193.932 69.48 195.705 69.8933 197.252 70.72C198.798 71.5467 200.012 72.7067 200.892 74.2C201.772 75.6933 202.212 77.3867 202.212 79.28C202.212 81.2533 201.732 83 200.772 84.52C199.812 86.04 198.452 87.24 196.692 88.12C194.958 88.9733 192.918 89.4 190.572 89.4ZM190.972 85.36C192.172 85.36 193.225 85.1067 194.132 84.6C195.065 84.0667 195.785 83.3467 196.292 82.44C196.825 81.5333 197.092 80.52 197.092 79.4C197.092 78.28 196.825 77.3067 196.292 76.48C195.785 75.6267 195.065 74.9467 194.132 74.44C193.225 73.9333 192.145 73.68 190.892 73.68C189.692 73.68 188.612 73.92 187.652 74.4C186.718 74.88 185.985 75.5467 185.452 76.4C184.945 77.2267 184.692 78.1867 184.692 79.28C184.692 80.4 184.958 81.4267 185.492 82.36C186.025 83.2933 186.758 84.0267 187.692 84.56C188.652 85.0933 189.745 85.36 190.972 85.36ZM216.571 89.28C214.385 89.28 212.438 88.8133 210.731 87.88C209.025 86.92 207.678 85.6133 206.691 83.96C205.705 82.3067 205.211 80.4267 205.211 78.32C205.211 76.1867 205.705 74.3067 206.691 72.68C207.678 71.0267 209.025 69.7333 210.731 68.8C212.438 67.8667 214.385 67.4 216.571 67.4C218.785 67.4 220.745 67.8667 222.451 68.8C224.185 69.7333 225.531 71.0133 226.491 72.64C227.478 74.2667 227.971 76.16 227.971 78.32C227.971 80.4267 227.478 82.3067 226.491 83.96C225.531 85.6133 224.185 86.92 222.451 87.88C220.745 88.8133 218.785 89.28 216.571 89.28ZM216.571 85C217.798 85 218.891 84.7333 219.851 84.2C220.811 83.6667 221.558 82.8933 222.091 81.88C222.651 80.8667 222.931 79.68 222.931 78.32C222.931 76.9333 222.651 75.7467 222.091 74.76C221.558 73.7467 220.811 72.9733 219.851 72.44C218.891 71.9067 217.811 71.64 216.611 71.64C215.385 71.64 214.291 71.9067 213.331 72.44C212.398 72.9733 211.651 73.7467 211.091 74.76C210.531 75.7467 210.251 76.9333 210.251 78.32C210.251 79.68 210.531 80.8667 211.091 81.88C211.651 82.8933 212.398 83.6667 213.331 84.2C214.291 84.7333 215.371 85 216.571 85ZM232.911 89V67.64H243.351C245.937 67.64 247.964 68.12 249.431 69.08C250.924 70.04 251.671 71.4 251.671 73.16C251.671 74.8933 250.977 76.2533 249.591 77.24C248.204 78.2 246.364 78.68 244.071 78.68L244.671 77.44C247.257 77.44 249.177 77.92 250.431 78.88C251.711 79.8133 252.351 81.1867 252.351 83C252.351 84.8933 251.644 86.3733 250.231 87.44C248.817 88.48 246.671 89 243.791 89H232.911ZM237.671 85.36H243.391C244.751 85.36 245.777 85.1467 246.471 84.72C247.164 84.2667 247.511 83.5867 247.511 82.68C247.511 81.72 247.191 81.0133 246.551 80.56C245.911 80.1067 244.911 79.88 243.551 79.88H237.671V85.36ZM237.671 76.56H242.911C244.191 76.56 245.151 76.3333 245.791 75.88C246.457 75.4 246.791 74.7333 246.791 73.88C246.791 73 246.457 72.3467 245.791 71.92C245.151 71.4933 244.191 71.28 242.911 71.28H237.671V76.56ZM270.636 89V84.68L270.356 83.76V76.2C270.356 74.7333 269.916 73.6 269.036 72.8C268.156 71.9733 266.823 71.56 265.036 71.56C263.836 71.56 262.65 71.7467 261.476 72.12C260.33 72.4933 259.356 73.0133 258.556 73.68L256.596 70.04C257.743 69.16 259.103 68.5067 260.676 68.08C262.276 67.6267 263.93 67.4 265.636 67.4C268.73 67.4 271.116 68.1467 272.796 69.64C274.503 71.1067 275.356 73.3867 275.356 76.48V89H270.636ZM263.916 89.28C262.316 89.28 260.916 89.0133 259.716 88.48C258.516 87.92 257.583 87.16 256.916 86.2C256.276 85.2133 255.956 84.1067 255.956 82.88C255.956 81.68 256.236 80.6 256.796 79.64C257.383 78.68 258.33 77.92 259.636 77.36C260.943 76.8 262.676 76.52 264.836 76.52H271.036V79.84H265.196C263.49 79.84 262.343 80.12 261.756 80.68C261.17 81.2133 260.876 81.88 260.876 82.68C260.876 83.5867 261.236 84.3067 261.956 84.84C262.676 85.3733 263.676 85.64 264.956 85.64C266.183 85.64 267.276 85.36 268.236 84.8C269.223 84.24 269.93 83.4133 270.356 82.32L271.196 85.32C270.716 86.5733 269.85 87.5467 268.596 88.24C267.37 88.9333 265.81 89.28 263.916 89.28ZM285.984 89V70.68L287.144 71.88H278.464V67.64H298.464V71.88H289.824L290.984 70.68V89H285.984ZM312.81 74.68C315.557 74.68 317.65 75.2933 319.09 76.52C320.53 77.7467 321.25 79.48 321.25 81.72C321.25 84.04 320.45 85.8533 318.85 87.16C317.25 88.44 314.997 89.0667 312.09 89.04L302.09 89V67.64H307.09V74.64L312.81 74.68ZM311.65 85.36C313.117 85.3867 314.237 85.08 315.01 84.44C315.784 83.8 316.17 82.8667 316.17 81.64C316.17 80.4133 315.784 79.5333 315.01 79C314.264 78.44 313.144 78.1467 311.65 78.12L307.09 78.08V85.32L311.65 85.36ZM113.466 138.28C111.279 138.28 109.333 137.813 107.626 136.88C105.919 135.92 104.573 134.613 103.586 132.96C102.599 131.307 102.106 129.427 102.106 127.32C102.106 125.187 102.599 123.307 103.586 121.68C104.573 120.027 105.919 118.733 107.626 117.8C109.333 116.867 111.279 116.4 113.466 116.4C115.679 116.4 117.639 116.867 119.346 117.8C121.079 118.733 122.426 120.013 123.386 121.64C124.373 123.267 124.866 125.16 124.866 127.32C124.866 129.427 124.373 131.307 123.386 132.96C122.426 134.613 121.079 135.92 119.346 136.88C117.639 137.813 115.679 138.28 113.466 138.28ZM113.466 134C114.693 134 115.786 133.733 116.746 133.2C117.706 132.667 118.453 131.893 118.986 130.88C119.546 129.867 119.826 128.68 119.826 127.32C119.826 125.933 119.546 124.747 118.986 123.76C118.453 122.747 117.706 121.973 116.746 121.44C115.786 120.907 114.706 120.64 113.506 120.64C112.279 120.64 111.186 120.907 110.226 121.44C109.293 121.973 108.546 122.747 107.986 123.76C107.426 124.747 107.146 125.933 107.146 127.32C107.146 128.68 107.426 129.867 107.986 130.88C108.546 131.893 109.293 132.667 110.226 133.2C111.186 133.733 112.266 134 113.466 134ZM129.805 138V116.64H134.805V125.32H145.565V116.64H150.565V138H145.565V129.56H134.805V138H129.805ZM154.146 137.96L154.386 133.76C154.573 133.787 154.746 133.813 154.906 133.84C155.066 133.867 155.213 133.88 155.346 133.88C156.173 133.88 156.813 133.627 157.266 133.12C157.72 132.613 158.053 131.933 158.266 131.08C158.506 130.2 158.666 129.227 158.746 128.16C158.853 127.067 158.933 125.973 158.986 124.88L159.346 116.64H176.626V138H171.626V119.52L172.786 120.88H162.626L163.706 119.48L163.426 125.12C163.346 127.013 163.186 128.773 162.946 130.4C162.733 132 162.386 133.4 161.906 134.6C161.453 135.8 160.813 136.733 159.986 137.4C159.186 138.067 158.16 138.4 156.906 138.4C156.506 138.4 156.066 138.36 155.586 138.28C155.133 138.2 154.653 138.093 154.146 137.96ZM196.32 138V133.68L196.04 132.76V125.2C196.04 123.733 195.6 122.6 194.72 121.8C193.84 120.973 192.507 120.56 190.72 120.56C189.52 120.56 188.333 120.747 187.16 121.12C186.013 121.493 185.04 122.013 184.24 122.68L182.28 119.04C183.427 118.16 184.787 117.507 186.36 117.08C187.96 116.627 189.613 116.4 191.32 116.4C194.413 116.4 196.8 117.147 198.48 118.64C200.187 120.107 201.04 122.387 201.04 125.48V138H196.32ZM189.6 138.28C188 138.28 186.6 138.013 185.4 137.48C184.2 136.92 183.267 136.16 182.6 135.2C181.96 134.213 181.64 133.107 181.64 131.88C181.64 130.68 181.92 129.6 182.48 128.64C183.067 127.68 184.013 126.92 185.32 126.36C186.627 125.8 188.36 125.52 190.52 125.52H196.72V128.84H190.88C189.173 128.84 188.027 129.12 187.44 129.68C186.853 130.213 186.56 130.88 186.56 131.68C186.56 132.587 186.92 133.307 187.64 133.84C188.36 134.373 189.36 134.64 190.64 134.64C191.867 134.64 192.96 134.36 193.92 133.8C194.907 133.24 195.613 132.413 196.04 131.32L196.88 134.32C196.4 135.573 195.533 136.547 194.28 137.24C193.053 137.933 191.493 138.28 189.6 138.28ZM207.227 138V116.64H212.227V130.72L224.027 116.64H228.587V138H223.587V123.92L211.827 138H207.227ZM217.587 114.12C215.454 114.12 213.814 113.627 212.667 112.64C211.521 111.627 210.934 110.16 210.907 108.24H214.227C214.254 109.2 214.547 109.96 215.107 110.52C215.694 111.08 216.507 111.36 217.547 111.36C218.561 111.36 219.361 111.08 219.947 110.52C220.561 109.96 220.881 109.2 220.907 108.24H224.307C224.281 110.16 223.681 111.627 222.507 112.64C221.361 113.627 219.721 114.12 217.587 114.12ZM235.313 138V116.64H240.313V125.32H251.073V116.64H256.073V138H251.073V129.56H240.313V138H235.313Z" fill="#F5F5F5"/>
<path fill-rule="evenodd" clip-rule="evenodd" d="M89 175.288L161.352 165.435L161.383 235.224L89.0661 235.636L89 175.288ZM161.317 243.265L161.373 313.115L89.0562 303.172L89.0521 242.796L161.317 243.265ZM170.088 164.146L266.02 150.144V234.336L170.088 235.098V164.146ZM266.043 243.922L266.02 327.734L170.088 314.195L169.953 243.765L266.043 243.922Z" fill="url(#paint0_linear_353_37)"/>
<defs>
<linearGradient id="paint0_linear_353_37" x1="177.521" y1="150.144" x2="177.521" y2="327.734" gradientUnits="userSpaceOnUse">
<stop offset="0.578125" stop-color="white"/>
<stop offset="0.916667" stop-color="#465ED7" stop-opacity="0.78"/>
</linearGradient>
</defs>
</svg>
